<mxfile host="Electron" modified="2023-12-27T11:23:41.323Z" agent="Mozilla/5.0 (Windows NT 10.0; Win64; x64) AppleWebKit/537.36 (KHTML, like Gecko) draw.io/22.1.2 Chrome/114.0.5735.289 Electron/25.9.4 Safari/537.36" etag="pLqTtGvU3qGD_gv8fF3S" version="22.1.2" type="device" pages="10">
  <diagram name="Взаимодействие с внешней средой" id="UszMCbJU1kO6WJyY27q9">
    <mxGraphModel dx="1539" dy="940" grid="1" gridSize="10" guides="1" tooltips="1" connect="1" arrows="1" fold="1" page="1" pageScale="1" pageWidth="827" pageHeight="1169" math="0" shadow="0">
      <root>
        <mxCell id="0" />
        <mxCell id="1" parent="0" />
        <mxCell id="86u2KgNpEQ6n4JqzEUCL-4" value="Ректорат вуза" style="rounded=0;whiteSpace=wrap;html=1;" parent="1" vertex="1">
          <mxGeometry x="-481" y="352.5" width="118" height="60" as="geometry" />
        </mxCell>
        <mxCell id="86u2KgNpEQ6n4JqzEUCL-5" value="Процесс найма профессорско-преподавательского состава в вуз" style="whiteSpace=wrap;html=1;" parent="1" vertex="1">
          <mxGeometry x="-827" y="502.5" width="200" height="60" as="geometry" />
        </mxCell>
        <mxCell id="86u2KgNpEQ6n4JqzEUCL-6" value="Альтернативные рабочие&lt;br&gt;места" style="edgeStyle=orthogonalEdgeStyle;rounded=0;orthogonalLoop=1;jettySize=auto;html=1;entryX=0.5;entryY=1;entryDx=0;entryDy=0;" parent="1" source="86u2KgNpEQ6n4JqzEUCL-7" target="86u2KgNpEQ6n4JqzEUCL-9" edge="1">
          <mxGeometry x="0.0769" relative="1" as="geometry">
            <Array as="points">
              <mxPoint x="-421" y="582.5" />
              <mxPoint x="-421" y="582.5" />
            </Array>
            <mxPoint as="offset" />
          </mxGeometry>
        </mxCell>
        <mxCell id="86u2KgNpEQ6n4JqzEUCL-7" value="Конкуренты" style="whiteSpace=wrap;html=1;" parent="1" vertex="1">
          <mxGeometry x="-481" y="627.5" width="120" height="60" as="geometry" />
        </mxCell>
        <mxCell id="86u2KgNpEQ6n4JqzEUCL-8" value="Государство" style="whiteSpace=wrap;html=1;" parent="1" vertex="1">
          <mxGeometry x="-747" y="352.5" width="120" height="60" as="geometry" />
        </mxCell>
        <mxCell id="86u2KgNpEQ6n4JqzEUCL-9" value="Рынок труда" style="whiteSpace=wrap;html=1;" parent="1" vertex="1">
          <mxGeometry x="-481" y="502.5" width="120" height="60" as="geometry" />
        </mxCell>
        <mxCell id="86u2KgNpEQ6n4JqzEUCL-10" value="Финансирование,&lt;br&gt;Трудовой кодекс" style="edgeStyle=orthogonalEdgeStyle;rounded=0;orthogonalLoop=1;jettySize=auto;html=1;entryX=0.014;entryY=0.173;entryDx=0;entryDy=0;entryPerimeter=0;" parent="1" edge="1">
          <mxGeometry relative="1" as="geometry">
            <Array as="points">
              <mxPoint x="-553" y="352.12" />
            </Array>
            <mxPoint x="-627" y="352.5353846153846" as="sourcePoint" />
            <mxPoint x="-479.34799999999996" y="352.5" as="targetPoint" />
          </mxGeometry>
        </mxCell>
        <mxCell id="86u2KgNpEQ6n4JqzEUCL-11" value="Необходимое количество рабочих мест,&lt;br&gt;Состав коллегиального органа" style="edgeStyle=orthogonalEdgeStyle;rounded=0;orthogonalLoop=1;jettySize=auto;html=1;entryX=0.931;entryY=0.031;entryDx=0;entryDy=0;entryPerimeter=0;" parent="1" source="86u2KgNpEQ6n4JqzEUCL-4" target="86u2KgNpEQ6n4JqzEUCL-5" edge="1">
          <mxGeometry x="0.192" relative="1" as="geometry">
            <Array as="points">
              <mxPoint x="-597" y="412.5" />
              <mxPoint x="-597" y="482.5" />
              <mxPoint x="-641" y="482.5" />
            </Array>
            <mxPoint as="offset" />
          </mxGeometry>
        </mxCell>
        <mxCell id="86u2KgNpEQ6n4JqzEUCL-12" value="Сотрудники&lt;br&gt;с истекшим контрактом" style="endArrow=classic;html=1;rounded=0;exitX=1;exitY=0.25;exitDx=0;exitDy=0;entryX=0;entryY=0.25;entryDx=0;entryDy=0;" parent="1" source="86u2KgNpEQ6n4JqzEUCL-5" target="86u2KgNpEQ6n4JqzEUCL-9" edge="1">
          <mxGeometry x="-0.0411" y="15" width="50" height="50" relative="1" as="geometry">
            <mxPoint x="-587" y="482.5" as="sourcePoint" />
            <mxPoint x="-487" y="522.5" as="targetPoint" />
            <mxPoint as="offset" />
          </mxGeometry>
        </mxCell>
        <mxCell id="86u2KgNpEQ6n4JqzEUCL-13" value="Кандидаты&lt;br&gt;на рабочее место" style="endArrow=classic;html=1;rounded=0;entryX=1.004;entryY=0.916;entryDx=0;entryDy=0;entryPerimeter=0;exitX=-0.003;exitY=0.91;exitDx=0;exitDy=0;exitPerimeter=0;" parent="1" source="86u2KgNpEQ6n4JqzEUCL-9" target="86u2KgNpEQ6n4JqzEUCL-5" edge="1">
          <mxGeometry x="0.045" y="15" width="50" height="50" relative="1" as="geometry">
            <mxPoint x="-587" y="482.5" as="sourcePoint" />
            <mxPoint x="-537" y="432.5" as="targetPoint" />
            <mxPoint as="offset" />
          </mxGeometry>
        </mxCell>
        <mxCell id="86u2KgNpEQ6n4JqzEUCL-14" value="" style="shape=curlyBracket;whiteSpace=wrap;html=1;rounded=1;labelPosition=left;verticalLabelPosition=middle;align=right;verticalAlign=middle;" parent="1" vertex="1">
          <mxGeometry x="-787" y="602.5" width="20" height="110" as="geometry" />
        </mxCell>
        <mxCell id="86u2KgNpEQ6n4JqzEUCL-16" value="ППС" style="edgeStyle=orthogonalEdgeStyle;rounded=0;orthogonalLoop=1;jettySize=auto;html=1;exitX=0.148;exitY=0.007;exitDx=0;exitDy=0;exitPerimeter=0;" parent="1" source="86u2KgNpEQ6n4JqzEUCL-5" target="86u2KgNpEQ6n4JqzEUCL-23" edge="1">
          <mxGeometry x="-0.7044" relative="1" as="geometry">
            <mxPoint as="offset" />
            <Array as="points">
              <mxPoint x="-797" y="300" />
              <mxPoint x="-207" y="300" />
            </Array>
          </mxGeometry>
        </mxCell>
        <mxCell id="86u2KgNpEQ6n4JqzEUCL-17" value="Найм ППС" style="text;html=1;align=left;verticalAlign=middle;resizable=0;points=[];autosize=1;strokeColor=none;fillColor=none;" parent="1" vertex="1">
          <mxGeometry x="-767" y="602.5" width="80" height="30" as="geometry" />
        </mxCell>
        <mxCell id="86u2KgNpEQ6n4JqzEUCL-18" value="Отсев неподходящих&lt;br&gt;кандидатов" style="text;html=1;align=left;verticalAlign=middle;resizable=0;points=[];autosize=1;strokeColor=none;fillColor=none;" parent="1" vertex="1">
          <mxGeometry x="-767" y="632.5" width="140" height="40" as="geometry" />
        </mxCell>
        <mxCell id="86u2KgNpEQ6n4JqzEUCL-19" style="edgeStyle=orthogonalEdgeStyle;rounded=0;orthogonalLoop=1;jettySize=auto;html=1;exitX=0.1;exitY=0.5;exitDx=0;exitDy=0;exitPerimeter=0;" parent="1" source="86u2KgNpEQ6n4JqzEUCL-14" target="86u2KgNpEQ6n4JqzEUCL-5" edge="1">
          <mxGeometry relative="1" as="geometry">
            <Array as="points">
              <mxPoint x="-818" y="657.5" />
            </Array>
            <mxPoint x="-818" y="572.5" as="targetPoint" />
          </mxGeometry>
        </mxCell>
        <mxCell id="86u2KgNpEQ6n4JqzEUCL-20" style="edgeStyle=orthogonalEdgeStyle;rounded=0;orthogonalLoop=1;jettySize=auto;html=1;" parent="1" source="86u2KgNpEQ6n4JqzEUCL-4" edge="1">
          <mxGeometry relative="1" as="geometry">
            <Array as="points">
              <mxPoint x="-627" y="390" />
            </Array>
            <mxPoint x="-627" y="390" as="targetPoint" />
          </mxGeometry>
        </mxCell>
        <mxCell id="86u2KgNpEQ6n4JqzEUCL-21" value="Показатели" style="edgeLabel;html=1;align=center;verticalAlign=middle;resizable=0;points=[];" parent="86u2KgNpEQ6n4JqzEUCL-20" vertex="1" connectable="0">
          <mxGeometry x="-0.0274" relative="1" as="geometry">
            <mxPoint as="offset" />
          </mxGeometry>
        </mxCell>
        <mxCell id="86u2KgNpEQ6n4JqzEUCL-22" value="Анализ рынка&lt;br&gt;труда" style="text;html=1;align=left;verticalAlign=middle;resizable=0;points=[];autosize=1;strokeColor=none;fillColor=none;" parent="1" vertex="1">
          <mxGeometry x="-767" y="667.5" width="100" height="40" as="geometry" />
        </mxCell>
        <mxCell id="86u2KgNpEQ6n4JqzEUCL-26" value="Преподаватели" style="edgeStyle=orthogonalEdgeStyle;rounded=0;orthogonalLoop=1;jettySize=auto;html=1;entryX=0.5;entryY=0;entryDx=0;entryDy=0;" parent="1" source="86u2KgNpEQ6n4JqzEUCL-23" target="86u2KgNpEQ6n4JqzEUCL-24" edge="1">
          <mxGeometry relative="1" as="geometry">
            <Array as="points">
              <mxPoint x="-207" y="400" />
              <mxPoint x="-207" y="400" />
            </Array>
          </mxGeometry>
        </mxCell>
        <mxCell id="86u2KgNpEQ6n4JqzEUCL-27" style="edgeStyle=orthogonalEdgeStyle;rounded=0;orthogonalLoop=1;jettySize=auto;html=1;" parent="1" source="86u2KgNpEQ6n4JqzEUCL-23" target="86u2KgNpEQ6n4JqzEUCL-25" edge="1">
          <mxGeometry relative="1" as="geometry">
            <Array as="points">
              <mxPoint x="-90" y="350" />
            </Array>
          </mxGeometry>
        </mxCell>
        <mxCell id="86u2KgNpEQ6n4JqzEUCL-29" value="Научные сотрудники" style="edgeLabel;html=1;align=center;verticalAlign=middle;resizable=0;points=[];" parent="86u2KgNpEQ6n4JqzEUCL-27" vertex="1" connectable="0">
          <mxGeometry x="-0.3378" relative="1" as="geometry">
            <mxPoint x="-10" y="11" as="offset" />
          </mxGeometry>
        </mxCell>
        <mxCell id="86u2KgNpEQ6n4JqzEUCL-32" value="Показатели" style="edgeStyle=orthogonalEdgeStyle;rounded=0;orthogonalLoop=1;jettySize=auto;html=1;" parent="1" source="86u2KgNpEQ6n4JqzEUCL-23" target="86u2KgNpEQ6n4JqzEUCL-4" edge="1">
          <mxGeometry x="0.0862" y="-10" relative="1" as="geometry">
            <Array as="points">
              <mxPoint x="-327" y="360" />
              <mxPoint x="-327" y="360" />
            </Array>
            <mxPoint as="offset" />
          </mxGeometry>
        </mxCell>
        <mxCell id="86u2KgNpEQ6n4JqzEUCL-23" value="Кафедры" style="whiteSpace=wrap;html=1;" parent="1" vertex="1">
          <mxGeometry x="-247" y="330" width="120" height="60" as="geometry" />
        </mxCell>
        <mxCell id="86u2KgNpEQ6n4JqzEUCL-30" value="Студенты" style="edgeStyle=orthogonalEdgeStyle;rounded=0;orthogonalLoop=1;jettySize=auto;html=1;entryX=0;entryY=0.5;entryDx=0;entryDy=0;" parent="1" source="86u2KgNpEQ6n4JqzEUCL-24" target="86u2KgNpEQ6n4JqzEUCL-25" edge="1">
          <mxGeometry relative="1" as="geometry" />
        </mxCell>
        <mxCell id="86u2KgNpEQ6n4JqzEUCL-24" value="Образовательный процесс" style="whiteSpace=wrap;html=1;" parent="1" vertex="1">
          <mxGeometry x="-267" y="460" width="120" height="60" as="geometry" />
        </mxCell>
        <mxCell id="IuxJi5kfItkMQjMD_nPF-1" style="edgeStyle=orthogonalEdgeStyle;rounded=0;orthogonalLoop=1;jettySize=auto;html=1;" parent="1" source="86u2KgNpEQ6n4JqzEUCL-25" target="86u2KgNpEQ6n4JqzEUCL-4" edge="1">
          <mxGeometry relative="1" as="geometry">
            <Array as="points">
              <mxPoint x="-300" y="650" />
              <mxPoint x="-300" y="360" />
            </Array>
          </mxGeometry>
        </mxCell>
        <mxCell id="86u2KgNpEQ6n4JqzEUCL-25" value="Научная деятельность" style="whiteSpace=wrap;html=1;" parent="1" vertex="1">
          <mxGeometry x="-160" y="602.5" width="120" height="60" as="geometry" />
        </mxCell>
        <mxCell id="86u2KgNpEQ6n4JqzEUCL-31" value="Выпускники" style="edgeStyle=orthogonalEdgeStyle;rounded=0;orthogonalLoop=1;jettySize=auto;html=1;entryX=0.995;entryY=0.622;entryDx=0;entryDy=0;entryPerimeter=0;" parent="1" source="86u2KgNpEQ6n4JqzEUCL-24" target="86u2KgNpEQ6n4JqzEUCL-9" edge="1">
          <mxGeometry relative="1" as="geometry">
            <Array as="points">
              <mxPoint x="-217" y="540" />
            </Array>
          </mxGeometry>
        </mxCell>
        <mxCell id="86u2KgNpEQ6n4JqzEUCL-34" value="Фианансирование" style="edgeStyle=orthogonalEdgeStyle;rounded=0;orthogonalLoop=1;jettySize=auto;html=1;entryX=-0.005;entryY=0.887;entryDx=0;entryDy=0;entryPerimeter=0;" parent="1" source="86u2KgNpEQ6n4JqzEUCL-4" target="86u2KgNpEQ6n4JqzEUCL-23" edge="1">
          <mxGeometry relative="1" as="geometry" />
        </mxCell>
        <mxCell id="MuzszeO60wsTYJ-sSC0t-1" value="Проблема:&amp;nbsp;низкая конкуренции в конкурсном отборе ППС" style="rounded=0;whiteSpace=wrap;html=1;" parent="1" vertex="1">
          <mxGeometry x="-513" y="180" width="182" height="60" as="geometry" />
        </mxCell>
      </root>
    </mxGraphModel>
  </diagram>
  <diagram id="ndOz9eQ9yVfp-iUVjfmG" name="Модель состава и структуры системы">
    <mxGraphModel dx="1418" dy="940" grid="1" gridSize="10" guides="1" tooltips="1" connect="1" arrows="1" fold="1" page="1" pageScale="1" pageWidth="827" pageHeight="1169" math="0" shadow="0">
      <root>
        <mxCell id="0" />
        <mxCell id="1" parent="0" />
        <mxCell id="0oKqQD6AY0Pg48myhbMS-5" style="edgeStyle=orthogonalEdgeStyle;rounded=0;orthogonalLoop=1;jettySize=auto;html=1;" parent="1" source="0oKqQD6AY0Pg48myhbMS-1" target="0oKqQD6AY0Pg48myhbMS-2" edge="1">
          <mxGeometry relative="1" as="geometry">
            <Array as="points">
              <mxPoint x="420" y="220" />
              <mxPoint x="580" y="220" />
            </Array>
          </mxGeometry>
        </mxCell>
        <mxCell id="0oKqQD6AY0Pg48myhbMS-6" style="edgeStyle=orthogonalEdgeStyle;rounded=0;orthogonalLoop=1;jettySize=auto;html=1;entryX=0.5;entryY=0;entryDx=0;entryDy=0;" parent="1" source="0oKqQD6AY0Pg48myhbMS-1" target="0oKqQD6AY0Pg48myhbMS-4" edge="1">
          <mxGeometry relative="1" as="geometry" />
        </mxCell>
        <mxCell id="0oKqQD6AY0Pg48myhbMS-7" style="edgeStyle=orthogonalEdgeStyle;rounded=0;orthogonalLoop=1;jettySize=auto;html=1;" parent="1" source="0oKqQD6AY0Pg48myhbMS-1" target="0oKqQD6AY0Pg48myhbMS-3" edge="1">
          <mxGeometry relative="1" as="geometry">
            <Array as="points">
              <mxPoint x="420" y="220" />
              <mxPoint x="260" y="220" />
            </Array>
          </mxGeometry>
        </mxCell>
        <mxCell id="0oKqQD6AY0Pg48myhbMS-1" value="Процесс найма ППС в вуз" style="rounded=0;whiteSpace=wrap;html=1;" parent="1" vertex="1">
          <mxGeometry x="360" y="120" width="120" height="60" as="geometry" />
        </mxCell>
        <mxCell id="0oKqQD6AY0Pg48myhbMS-2" value="Трудоустройство кандидата" style="rounded=0;whiteSpace=wrap;html=1;" parent="1" vertex="1">
          <mxGeometry x="520" y="240" width="120" height="60" as="geometry" />
        </mxCell>
        <mxCell id="y3z8l_z5oSNkDqreOPCw-14" style="edgeStyle=orthogonalEdgeStyle;rounded=0;orthogonalLoop=1;jettySize=auto;html=1;entryX=0;entryY=0.5;entryDx=0;entryDy=0;" parent="1" source="0oKqQD6AY0Pg48myhbMS-3" target="y3z8l_z5oSNkDqreOPCw-8" edge="1">
          <mxGeometry relative="1" as="geometry">
            <Array as="points">
              <mxPoint x="200" y="370" />
            </Array>
          </mxGeometry>
        </mxCell>
        <mxCell id="y3z8l_z5oSNkDqreOPCw-16" style="edgeStyle=orthogonalEdgeStyle;rounded=0;orthogonalLoop=1;jettySize=auto;html=1;entryX=0;entryY=0.5;entryDx=0;entryDy=0;" parent="1" source="0oKqQD6AY0Pg48myhbMS-3" target="y3z8l_z5oSNkDqreOPCw-10" edge="1">
          <mxGeometry relative="1" as="geometry">
            <Array as="points">
              <mxPoint x="200" y="470" />
            </Array>
          </mxGeometry>
        </mxCell>
        <mxCell id="y3z8l_z5oSNkDqreOPCw-17" style="edgeStyle=orthogonalEdgeStyle;rounded=0;orthogonalLoop=1;jettySize=auto;html=1;entryX=0;entryY=0.5;entryDx=0;entryDy=0;" parent="1" source="0oKqQD6AY0Pg48myhbMS-3" target="y3z8l_z5oSNkDqreOPCw-13" edge="1">
          <mxGeometry relative="1" as="geometry">
            <Array as="points">
              <mxPoint x="200" y="570" />
            </Array>
          </mxGeometry>
        </mxCell>
        <mxCell id="0oKqQD6AY0Pg48myhbMS-3" value="Предконкурсная процедура" style="rounded=0;whiteSpace=wrap;html=1;" parent="1" vertex="1">
          <mxGeometry x="200" y="240" width="120" height="60" as="geometry" />
        </mxCell>
        <mxCell id="0oKqQD6AY0Pg48myhbMS-4" value="Конкурсная процедура" style="rounded=0;whiteSpace=wrap;html=1;" parent="1" vertex="1">
          <mxGeometry x="360" y="240" width="120" height="60" as="geometry" />
        </mxCell>
        <mxCell id="y3z8l_z5oSNkDqreOPCw-1" value="" style="endArrow=none;dashed=1;html=1;dashPattern=1 3;strokeWidth=2;rounded=0;" parent="1" edge="1">
          <mxGeometry width="50" height="50" relative="1" as="geometry">
            <mxPoint x="160" y="320" as="sourcePoint" />
            <mxPoint x="720" y="320" as="targetPoint" />
          </mxGeometry>
        </mxCell>
        <mxCell id="y3z8l_z5oSNkDqreOPCw-2" value="" style="endArrow=none;dashed=1;html=1;dashPattern=1 3;strokeWidth=2;rounded=0;" parent="1" edge="1">
          <mxGeometry width="50" height="50" relative="1" as="geometry">
            <mxPoint x="160" y="200" as="sourcePoint" />
            <mxPoint x="160" y="320" as="targetPoint" />
          </mxGeometry>
        </mxCell>
        <mxCell id="y3z8l_z5oSNkDqreOPCw-3" value="" style="endArrow=none;dashed=1;html=1;dashPattern=1 3;strokeWidth=2;rounded=0;" parent="1" edge="1">
          <mxGeometry width="50" height="50" relative="1" as="geometry">
            <mxPoint x="720" y="200" as="sourcePoint" />
            <mxPoint x="160" y="200" as="targetPoint" />
          </mxGeometry>
        </mxCell>
        <mxCell id="y3z8l_z5oSNkDqreOPCw-5" value="" style="endArrow=none;dashed=1;html=1;dashPattern=1 3;strokeWidth=2;rounded=0;" parent="1" edge="1">
          <mxGeometry width="50" height="50" relative="1" as="geometry">
            <mxPoint x="720" y="200" as="sourcePoint" />
            <mxPoint x="720" y="320" as="targetPoint" />
          </mxGeometry>
        </mxCell>
        <mxCell id="y3z8l_z5oSNkDqreOPCw-7" value="Жизненный цикл процесса" style="text;html=1;align=center;verticalAlign=middle;resizable=0;points=[];autosize=1;strokeColor=none;fillColor=none;" parent="1" vertex="1">
          <mxGeometry x="160" y="170" width="170" height="30" as="geometry" />
        </mxCell>
        <mxCell id="y3z8l_z5oSNkDqreOPCw-8" value="Подготовка списка ППС с истекшим сроком договора" style="rounded=0;whiteSpace=wrap;html=1;" parent="1" vertex="1">
          <mxGeometry x="230" y="340" width="120" height="60" as="geometry" />
        </mxCell>
        <mxCell id="y3z8l_z5oSNkDqreOPCw-10" value="Формирование списка вакантных должностей" style="rounded=0;whiteSpace=wrap;html=1;" parent="1" vertex="1">
          <mxGeometry x="230" y="440" width="120" height="60" as="geometry" />
        </mxCell>
        <mxCell id="y3z8l_z5oSNkDqreOPCw-13" value="Формирование приказа о проведении конкурсного отбора" style="rounded=0;whiteSpace=wrap;html=1;" parent="1" vertex="1">
          <mxGeometry x="230" y="540" width="120" height="60" as="geometry" />
        </mxCell>
        <mxCell id="y3z8l_z5oSNkDqreOPCw-21" style="edgeStyle=orthogonalEdgeStyle;rounded=0;orthogonalLoop=1;jettySize=auto;html=1;entryX=0;entryY=0.5;entryDx=0;entryDy=0;" parent="1" target="y3z8l_z5oSNkDqreOPCw-24" edge="1">
          <mxGeometry relative="1" as="geometry">
            <mxPoint x="360" y="300" as="sourcePoint" />
            <Array as="points">
              <mxPoint x="360" y="370" />
            </Array>
          </mxGeometry>
        </mxCell>
        <mxCell id="y3z8l_z5oSNkDqreOPCw-22" style="edgeStyle=orthogonalEdgeStyle;rounded=0;orthogonalLoop=1;jettySize=auto;html=1;entryX=0;entryY=0.5;entryDx=0;entryDy=0;" parent="1" target="y3z8l_z5oSNkDqreOPCw-25" edge="1">
          <mxGeometry relative="1" as="geometry">
            <mxPoint x="360" y="300" as="sourcePoint" />
            <Array as="points">
              <mxPoint x="360" y="470" />
            </Array>
          </mxGeometry>
        </mxCell>
        <mxCell id="y3z8l_z5oSNkDqreOPCw-23" style="edgeStyle=orthogonalEdgeStyle;rounded=0;orthogonalLoop=1;jettySize=auto;html=1;entryX=0;entryY=0.5;entryDx=0;entryDy=0;" parent="1" target="y3z8l_z5oSNkDqreOPCw-26" edge="1">
          <mxGeometry relative="1" as="geometry">
            <mxPoint x="360" y="300" as="sourcePoint" />
            <Array as="points">
              <mxPoint x="360" y="570" />
            </Array>
          </mxGeometry>
        </mxCell>
        <mxCell id="y3z8l_z5oSNkDqreOPCw-24" value="Прием документов" style="rounded=0;whiteSpace=wrap;html=1;" parent="1" vertex="1">
          <mxGeometry x="390" y="340" width="120" height="60" as="geometry" />
        </mxCell>
        <mxCell id="y3z8l_z5oSNkDqreOPCw-25" value="Формирование рекомендаций кандидатов" style="rounded=0;whiteSpace=wrap;html=1;" parent="1" vertex="1">
          <mxGeometry x="390" y="440" width="120" height="60" as="geometry" />
        </mxCell>
        <mxCell id="y3z8l_z5oSNkDqreOPCw-26" value="Заседание учёного совета" style="rounded=0;whiteSpace=wrap;html=1;" parent="1" vertex="1">
          <mxGeometry x="390" y="540" width="120" height="60" as="geometry" />
        </mxCell>
        <mxCell id="y3z8l_z5oSNkDqreOPCw-27" style="edgeStyle=orthogonalEdgeStyle;rounded=0;orthogonalLoop=1;jettySize=auto;html=1;entryX=0;entryY=0.5;entryDx=0;entryDy=0;" parent="1" target="y3z8l_z5oSNkDqreOPCw-30" edge="1">
          <mxGeometry relative="1" as="geometry">
            <mxPoint x="520" y="300" as="sourcePoint" />
            <Array as="points">
              <mxPoint x="520" y="370" />
            </Array>
          </mxGeometry>
        </mxCell>
        <mxCell id="y3z8l_z5oSNkDqreOPCw-28" style="edgeStyle=orthogonalEdgeStyle;rounded=0;orthogonalLoop=1;jettySize=auto;html=1;entryX=0;entryY=0.5;entryDx=0;entryDy=0;" parent="1" target="y3z8l_z5oSNkDqreOPCw-31" edge="1">
          <mxGeometry relative="1" as="geometry">
            <mxPoint x="520" y="300" as="sourcePoint" />
            <Array as="points">
              <mxPoint x="520" y="470" />
            </Array>
          </mxGeometry>
        </mxCell>
        <mxCell id="y3z8l_z5oSNkDqreOPCw-30" value="Формирование трудового договора" style="rounded=0;whiteSpace=wrap;html=1;" parent="1" vertex="1">
          <mxGeometry x="550" y="340" width="120" height="60" as="geometry" />
        </mxCell>
        <mxCell id="y3z8l_z5oSNkDqreOPCw-31" value="Заверение трудового договора" style="rounded=0;whiteSpace=wrap;html=1;" parent="1" vertex="1">
          <mxGeometry x="550" y="440" width="120" height="60" as="geometry" />
        </mxCell>
      </root>
    </mxGraphModel>
  </diagram>
  <diagram id="Y1Jk1fJJdfQJ7-R8iiAU" name="Взаимосвязь подсистем">
    <mxGraphModel dx="674" dy="1353" grid="1" gridSize="10" guides="1" tooltips="1" connect="1" arrows="1" fold="1" page="1" pageScale="1" pageWidth="827" pageHeight="1169" math="0" shadow="0">
      <root>
        <mxCell id="0" />
        <mxCell id="1" parent="0" />
        <mxCell id="P8VQdNOCWyOBITLVH6Jd-19" value="Пакет документов" style="edgeStyle=orthogonalEdgeStyle;rounded=0;orthogonalLoop=1;jettySize=auto;html=1;entryX=0.5;entryY=1;entryDx=0;entryDy=0;" parent="1" source="P8VQdNOCWyOBITLVH6Jd-2" target="P8VQdNOCWyOBITLVH6Jd-12" edge="1">
          <mxGeometry y="10" relative="1" as="geometry">
            <mxPoint as="offset" />
          </mxGeometry>
        </mxCell>
        <mxCell id="XrV9c8Po9dgw4ltpzgZg-1" value="Подписанный трудовой договор" style="edgeStyle=orthogonalEdgeStyle;rounded=0;orthogonalLoop=1;jettySize=auto;html=1;entryX=0;entryY=0.5;entryDx=0;entryDy=0;" edge="1" parent="1" source="P8VQdNOCWyOBITLVH6Jd-2" target="P8VQdNOCWyOBITLVH6Jd-15">
          <mxGeometry x="0.4074" y="-20" relative="1" as="geometry">
            <Array as="points">
              <mxPoint x="70" y="400" />
              <mxPoint x="70" y="570" />
            </Array>
            <mxPoint as="offset" />
          </mxGeometry>
        </mxCell>
        <mxCell id="P8VQdNOCWyOBITLVH6Jd-2" value="Кандидат" style="shape=umlActor;verticalLabelPosition=bottom;verticalAlign=top;html=1;outlineConnect=0;" parent="1" vertex="1">
          <mxGeometry x="110" y="370" width="30" height="60" as="geometry" />
        </mxCell>
        <mxCell id="P8VQdNOCWyOBITLVH6Jd-9" value="" style="group" parent="1" vertex="1" connectable="0">
          <mxGeometry x="240" y="160" width="160" height="180" as="geometry" />
        </mxCell>
        <mxCell id="P8VQdNOCWyOBITLVH6Jd-5" value="Исполнитель:&lt;br&gt;отдел кадров,&lt;br&gt;заведующие кафедрой" style="rounded=0;whiteSpace=wrap;html=1;align=left;" parent="P8VQdNOCWyOBITLVH6Jd-9" vertex="1">
          <mxGeometry y="60" width="160" height="60" as="geometry" />
        </mxCell>
        <mxCell id="P8VQdNOCWyOBITLVH6Jd-6" value="&lt;div style=&quot;&quot;&gt;&lt;span style=&quot;background-color: initial;&quot;&gt;Средства деятельности:&lt;br&gt;компьютер,&lt;br&gt;1С,&lt;br&gt;MS Office&lt;/span&gt;&lt;/div&gt;" style="rounded=0;whiteSpace=wrap;html=1;align=left;" parent="P8VQdNOCWyOBITLVH6Jd-9" vertex="1">
          <mxGeometry y="120" width="160" height="60" as="geometry" />
        </mxCell>
        <mxCell id="P8VQdNOCWyOBITLVH6Jd-7" value="Предконкурсная процедура" style="rounded=0;whiteSpace=wrap;html=1;align=left;" parent="P8VQdNOCWyOBITLVH6Jd-9" vertex="1">
          <mxGeometry width="160" height="60" as="geometry" />
        </mxCell>
        <mxCell id="P8VQdNOCWyOBITLVH6Jd-10" value="" style="group" parent="1" vertex="1" connectable="0">
          <mxGeometry x="560" y="150" width="160" height="230" as="geometry" />
        </mxCell>
        <mxCell id="P8VQdNOCWyOBITLVH6Jd-11" value="Исполнитель:&lt;br&gt;отдел кадров,&lt;br&gt;коллегиальные органы,&lt;br&gt;ученый совет" style="rounded=0;whiteSpace=wrap;html=1;align=left;" parent="P8VQdNOCWyOBITLVH6Jd-10" vertex="1">
          <mxGeometry y="60" width="160" height="80" as="geometry" />
        </mxCell>
        <mxCell id="P8VQdNOCWyOBITLVH6Jd-12" value="&lt;div style=&quot;&quot;&gt;&lt;span style=&quot;background-color: initial;&quot;&gt;Средства деятельности:&lt;br&gt;компьютер,&lt;br&gt;MS Office,&lt;br&gt;рекомендации кандидатов,&lt;br&gt;данные о кандидатах,&lt;br&gt;документы кандидатов&lt;/span&gt;&lt;/div&gt;" style="rounded=0;whiteSpace=wrap;html=1;align=left;" parent="P8VQdNOCWyOBITLVH6Jd-10" vertex="1">
          <mxGeometry y="140" width="160" height="90" as="geometry" />
        </mxCell>
        <mxCell id="P8VQdNOCWyOBITLVH6Jd-13" value="Конкурсная процедура" style="rounded=0;whiteSpace=wrap;html=1;align=left;" parent="P8VQdNOCWyOBITLVH6Jd-10" vertex="1">
          <mxGeometry width="160" height="60" as="geometry" />
        </mxCell>
        <mxCell id="P8VQdNOCWyOBITLVH6Jd-14" value="" style="group" parent="1" vertex="1" connectable="0">
          <mxGeometry x="400" y="480" width="160" height="180" as="geometry" />
        </mxCell>
        <mxCell id="P8VQdNOCWyOBITLVH6Jd-15" value="Исполнитель:&lt;br&gt;отдел кадров" style="rounded=0;whiteSpace=wrap;html=1;align=left;" parent="P8VQdNOCWyOBITLVH6Jd-14" vertex="1">
          <mxGeometry y="60" width="160" height="60" as="geometry" />
        </mxCell>
        <mxCell id="P8VQdNOCWyOBITLVH6Jd-16" value="&lt;div style=&quot;&quot;&gt;&lt;span style=&quot;background-color: initial;&quot;&gt;Средства деятельности:&lt;br&gt;компьютер,&lt;br&gt;принтер,&lt;br&gt;трудовой договор&lt;/span&gt;&lt;/div&gt;" style="rounded=0;whiteSpace=wrap;html=1;align=left;" parent="P8VQdNOCWyOBITLVH6Jd-14" vertex="1">
          <mxGeometry y="120" width="160" height="60" as="geometry" />
        </mxCell>
        <mxCell id="P8VQdNOCWyOBITLVH6Jd-17" value="Трудоустройство кандидата" style="rounded=0;whiteSpace=wrap;html=1;align=left;" parent="P8VQdNOCWyOBITLVH6Jd-14" vertex="1">
          <mxGeometry width="160" height="60" as="geometry" />
        </mxCell>
        <mxCell id="P8VQdNOCWyOBITLVH6Jd-18" value="Объявления &lt;br&gt;о вакансиях" style="edgeStyle=orthogonalEdgeStyle;rounded=0;orthogonalLoop=1;jettySize=auto;html=1;" parent="1" source="P8VQdNOCWyOBITLVH6Jd-5" target="P8VQdNOCWyOBITLVH6Jd-2" edge="1">
          <mxGeometry x="-0.4667" y="20" relative="1" as="geometry">
            <mxPoint as="offset" />
            <Array as="points">
              <mxPoint x="125" y="260" />
            </Array>
          </mxGeometry>
        </mxCell>
        <mxCell id="P8VQdNOCWyOBITLVH6Jd-20" value="Трудовой договор" style="edgeStyle=orthogonalEdgeStyle;rounded=0;orthogonalLoop=1;jettySize=auto;html=1;" parent="1" source="P8VQdNOCWyOBITLVH6Jd-15" target="P8VQdNOCWyOBITLVH6Jd-2" edge="1">
          <mxGeometry x="-0.4634" y="-20" relative="1" as="geometry">
            <Array as="points">
              <mxPoint x="190" y="550" />
              <mxPoint x="190" y="420" />
            </Array>
            <mxPoint as="offset" />
          </mxGeometry>
        </mxCell>
        <mxCell id="P8VQdNOCWyOBITLVH6Jd-21" style="edgeStyle=orthogonalEdgeStyle;rounded=0;orthogonalLoop=1;jettySize=auto;html=1;entryX=0;entryY=0.5;entryDx=0;entryDy=0;" parent="1" source="P8VQdNOCWyOBITLVH6Jd-5" target="P8VQdNOCWyOBITLVH6Jd-11" edge="1">
          <mxGeometry relative="1" as="geometry" />
        </mxCell>
        <mxCell id="P8VQdNOCWyOBITLVH6Jd-22" value="Приказ &lt;br&gt;о проведении конкурса" style="edgeLabel;html=1;align=center;verticalAlign=middle;resizable=0;points=[];" parent="P8VQdNOCWyOBITLVH6Jd-21" vertex="1" connectable="0">
          <mxGeometry x="-0.125" y="2" relative="1" as="geometry">
            <mxPoint x="10" y="-18" as="offset" />
          </mxGeometry>
        </mxCell>
        <mxCell id="P8VQdNOCWyOBITLVH6Jd-23" value="Список кандидатов&lt;br&gt;прошедших конкурсный&lt;br&gt;отбор" style="edgeStyle=orthogonalEdgeStyle;rounded=0;orthogonalLoop=1;jettySize=auto;html=1;entryX=1;entryY=0.5;entryDx=0;entryDy=0;" parent="1" source="P8VQdNOCWyOBITLVH6Jd-11" target="P8VQdNOCWyOBITLVH6Jd-15" edge="1">
          <mxGeometry x="0.6452" y="-30" relative="1" as="geometry">
            <Array as="points">
              <mxPoint x="790" y="250" />
              <mxPoint x="790" y="570" />
            </Array>
            <mxPoint as="offset" />
          </mxGeometry>
        </mxCell>
        <mxCell id="HPkjpoVlAq54RvDiuVuY-1" value="Сроки проведения&lt;br&gt;конкурсного отбора" style="edgeStyle=orthogonalEdgeStyle;rounded=0;orthogonalLoop=1;jettySize=auto;html=1;entryX=0;entryY=0.5;entryDx=0;entryDy=0;" edge="1" parent="1" source="HPkjpoVlAq54RvDiuVuY-2" target="P8VQdNOCWyOBITLVH6Jd-5">
          <mxGeometry x="-0.133" relative="1" as="geometry">
            <Array as="points">
              <mxPoint x="175" y="250" />
            </Array>
            <mxPoint y="-1" as="offset" />
            <mxPoint x="400" y="310" as="targetPoint" />
          </mxGeometry>
        </mxCell>
        <mxCell id="HPkjpoVlAq54RvDiuVuY-2" value="Ректорат" style="shape=umlActor;verticalLabelPosition=bottom;verticalAlign=top;html=1;outlineConnect=0;" vertex="1" parent="1">
          <mxGeometry x="210" y="70" width="30" height="60" as="geometry" />
        </mxCell>
        <mxCell id="sMAXXS_X9D3CECMgyjba-2" value="Кафедра" style="shape=umlActor;verticalLabelPosition=bottom;verticalAlign=top;html=1;outlineConnect=0;" vertex="1" parent="1">
          <mxGeometry x="80" y="610" width="30" height="60" as="geometry" />
        </mxCell>
        <mxCell id="XrV9c8Po9dgw4ltpzgZg-2" value="Устроенный кандидат" style="edgeStyle=orthogonalEdgeStyle;rounded=0;orthogonalLoop=1;jettySize=auto;html=1;" edge="1" parent="1" source="P8VQdNOCWyOBITLVH6Jd-15" target="sMAXXS_X9D3CECMgyjba-2">
          <mxGeometry x="0.1765" y="20" relative="1" as="geometry">
            <Array as="points">
              <mxPoint x="380" y="590" />
              <mxPoint x="380" y="640" />
            </Array>
            <mxPoint as="offset" />
          </mxGeometry>
        </mxCell>
      </root>
    </mxGraphModel>
  </diagram>
  <diagram id="a8KsVijMX46NNdd6CGR2" name="Предконкурсная процедура">
    <mxGraphModel dx="450" dy="902" grid="1" gridSize="10" guides="1" tooltips="1" connect="1" arrows="1" fold="1" page="1" pageScale="1" pageWidth="827" pageHeight="1169" math="0" shadow="0">
      <root>
        <mxCell id="0" />
        <mxCell id="1" parent="0" />
        <mxCell id="nLmVH7AognoMy0vvjyKV-1" value="" style="group" parent="1" vertex="1" connectable="0">
          <mxGeometry x="560" y="460" width="160" height="180" as="geometry" />
        </mxCell>
        <mxCell id="nLmVH7AognoMy0vvjyKV-2" value="Исполнитель:&lt;br&gt;заведующие кафедрой" style="rounded=0;whiteSpace=wrap;html=1;align=left;" parent="nLmVH7AognoMy0vvjyKV-1" vertex="1">
          <mxGeometry y="60" width="160" height="60" as="geometry" />
        </mxCell>
        <mxCell id="nLmVH7AognoMy0vvjyKV-3" value="&lt;div style=&quot;&quot;&gt;&lt;span style=&quot;background-color: initial;&quot;&gt;Средства деятельности:&lt;br&gt;компьютер,&lt;br&gt;MS Office&lt;/span&gt;&lt;/div&gt;" style="rounded=0;whiteSpace=wrap;html=1;align=left;" parent="nLmVH7AognoMy0vvjyKV-1" vertex="1">
          <mxGeometry y="120" width="160" height="60" as="geometry" />
        </mxCell>
        <mxCell id="nLmVH7AognoMy0vvjyKV-4" value="Формирование списка вакантных должностей" style="rounded=0;whiteSpace=wrap;html=1;align=left;" parent="nLmVH7AognoMy0vvjyKV-1" vertex="1">
          <mxGeometry width="160" height="60" as="geometry" />
        </mxCell>
        <mxCell id="nLmVH7AognoMy0vvjyKV-5" value="" style="group" parent="1" vertex="1" connectable="0">
          <mxGeometry x="240" y="460" width="160" height="180" as="geometry" />
        </mxCell>
        <mxCell id="nLmVH7AognoMy0vvjyKV-6" value="Исполнитель:&lt;br&gt;Отдел кадров" style="rounded=0;whiteSpace=wrap;html=1;align=left;" parent="nLmVH7AognoMy0vvjyKV-5" vertex="1">
          <mxGeometry y="60" width="160" height="60" as="geometry" />
        </mxCell>
        <mxCell id="nLmVH7AognoMy0vvjyKV-7" value="&lt;div style=&quot;&quot;&gt;&lt;span style=&quot;background-color: initial;&quot;&gt;Средства деятельности:&lt;br&gt;компьютер,&lt;br&gt;MS Office&lt;/span&gt;&lt;/div&gt;" style="rounded=0;whiteSpace=wrap;html=1;align=left;" parent="nLmVH7AognoMy0vvjyKV-5" vertex="1">
          <mxGeometry y="120" width="160" height="60" as="geometry" />
        </mxCell>
        <mxCell id="nLmVH7AognoMy0vvjyKV-8" value="Приказ о проведении конкурсного отбора" style="rounded=0;whiteSpace=wrap;html=1;align=left;" parent="nLmVH7AognoMy0vvjyKV-5" vertex="1">
          <mxGeometry width="160" height="60" as="geometry" />
        </mxCell>
        <mxCell id="Y4JHTWE89jt_3Hu0uAb7-1" style="edgeStyle=orthogonalEdgeStyle;rounded=0;orthogonalLoop=1;jettySize=auto;html=1;exitX=0.5;exitY=1;exitDx=0;exitDy=0;" edge="1" parent="nLmVH7AognoMy0vvjyKV-5" source="nLmVH7AognoMy0vvjyKV-6" target="nLmVH7AognoMy0vvjyKV-6">
          <mxGeometry relative="1" as="geometry" />
        </mxCell>
        <mxCell id="nLmVH7AognoMy0vvjyKV-9" value="" style="group" parent="1" vertex="1" connectable="0">
          <mxGeometry x="400" y="220" width="160" height="180" as="geometry" />
        </mxCell>
        <mxCell id="nLmVH7AognoMy0vvjyKV-10" value="Исполнитель:&lt;br&gt;отдел кадров" style="rounded=0;whiteSpace=wrap;html=1;align=left;" parent="nLmVH7AognoMy0vvjyKV-9" vertex="1">
          <mxGeometry y="60" width="160" height="60" as="geometry" />
        </mxCell>
        <mxCell id="nLmVH7AognoMy0vvjyKV-11" value="&lt;div style=&quot;&quot;&gt;&lt;span style=&quot;background-color: initial;&quot;&gt;Средства деятельности:&lt;br&gt;компьютер,&lt;br&gt;1С,&lt;br&gt;MS Office&lt;/span&gt;&lt;/div&gt;" style="rounded=0;whiteSpace=wrap;html=1;align=left;" parent="nLmVH7AognoMy0vvjyKV-9" vertex="1">
          <mxGeometry y="120" width="160" height="60" as="geometry" />
        </mxCell>
        <mxCell id="nLmVH7AognoMy0vvjyKV-12" value="Подготовка списка ППС с истекшим сроком договора" style="rounded=0;whiteSpace=wrap;html=1;align=left;" parent="nLmVH7AognoMy0vvjyKV-9" vertex="1">
          <mxGeometry width="160" height="60" as="geometry" />
        </mxCell>
        <mxCell id="pIVRAdZzOY-LKg3kyjP2-2" style="edgeStyle=orthogonalEdgeStyle;rounded=0;orthogonalLoop=1;jettySize=auto;html=1;entryX=0.5;entryY=0;entryDx=0;entryDy=0;" parent="1" source="nLmVH7AognoMy0vvjyKV-10" target="nLmVH7AognoMy0vvjyKV-4" edge="1">
          <mxGeometry relative="1" as="geometry">
            <mxPoint x="640" y="450" as="targetPoint" />
            <Array as="points">
              <mxPoint x="640" y="310" />
            </Array>
          </mxGeometry>
        </mxCell>
        <mxCell id="pIVRAdZzOY-LKg3kyjP2-8" value="Список ППС с &lt;br&gt;истекшим сроком договора" style="edgeLabel;html=1;align=center;verticalAlign=middle;resizable=0;points=[];" parent="pIVRAdZzOY-LKg3kyjP2-2" vertex="1" connectable="0">
          <mxGeometry x="0.3652" y="3" relative="1" as="geometry">
            <mxPoint as="offset" />
          </mxGeometry>
        </mxCell>
        <mxCell id="pIVRAdZzOY-LKg3kyjP2-3" style="edgeStyle=orthogonalEdgeStyle;rounded=0;orthogonalLoop=1;jettySize=auto;html=1;" parent="1" source="nLmVH7AognoMy0vvjyKV-2" target="nLmVH7AognoMy0vvjyKV-6" edge="1">
          <mxGeometry relative="1" as="geometry" />
        </mxCell>
        <mxCell id="pIVRAdZzOY-LKg3kyjP2-9" value="Список вакантных&lt;br&gt;должностей" style="edgeLabel;html=1;align=center;verticalAlign=middle;resizable=0;points=[];" parent="pIVRAdZzOY-LKg3kyjP2-3" vertex="1" connectable="0">
          <mxGeometry x="-0.0875" y="4" relative="1" as="geometry">
            <mxPoint x="-7" y="-24" as="offset" />
          </mxGeometry>
        </mxCell>
        <mxCell id="pIVRAdZzOY-LKg3kyjP2-4" value="Кандидат" style="shape=umlActor;verticalLabelPosition=bottom;verticalAlign=top;html=1;outlineConnect=0;" parent="1" vertex="1">
          <mxGeometry x="240" y="280" width="30" height="60" as="geometry" />
        </mxCell>
        <mxCell id="pIVRAdZzOY-LKg3kyjP2-6" style="edgeStyle=orthogonalEdgeStyle;rounded=0;orthogonalLoop=1;jettySize=auto;html=1;" parent="1" source="nLmVH7AognoMy0vvjyKV-6" target="pIVRAdZzOY-LKg3kyjP2-4" edge="1">
          <mxGeometry relative="1" as="geometry">
            <Array as="points">
              <mxPoint x="210" y="540" />
              <mxPoint x="210" y="290" />
            </Array>
          </mxGeometry>
        </mxCell>
        <mxCell id="pIVRAdZzOY-LKg3kyjP2-7" value="Объявления о вакансиях" style="edgeLabel;html=1;align=center;verticalAlign=middle;resizable=0;points=[];" parent="pIVRAdZzOY-LKg3kyjP2-6" vertex="1" connectable="0">
          <mxGeometry x="-0.4386" y="-1" relative="1" as="geometry">
            <mxPoint x="69" y="-77" as="offset" />
          </mxGeometry>
        </mxCell>
        <mxCell id="BJCf3CcSnuQTVZGqPYbW-2" value="Отдел кадров" style="shape=umlActor;verticalLabelPosition=bottom;verticalAlign=top;html=1;outlineConnect=0;" parent="1" vertex="1">
          <mxGeometry x="240" y="680" width="30" height="60" as="geometry" />
        </mxCell>
        <mxCell id="BJCf3CcSnuQTVZGqPYbW-3" value="Приказ о&lt;br&gt;проведении конкурса" style="edgeStyle=orthogonalEdgeStyle;rounded=0;orthogonalLoop=1;jettySize=auto;html=1;exitX=0;exitY=0.3333333333333333;exitDx=0;exitDy=0;exitPerimeter=0;" parent="1" source="BJCf3CcSnuQTVZGqPYbW-4" target="BJCf3CcSnuQTVZGqPYbW-2" edge="1">
          <mxGeometry x="0.236" y="-60" relative="1" as="geometry">
            <mxPoint x="240" y="710" as="targetPoint" />
            <Array as="points">
              <mxPoint x="130" y="120" />
              <mxPoint x="130" y="710" />
            </Array>
            <mxPoint as="offset" />
          </mxGeometry>
        </mxCell>
        <mxCell id="BJCf3CcSnuQTVZGqPYbW-6" value="Сроки проведения&lt;br&gt;конкурсного отбора" style="edgeStyle=orthogonalEdgeStyle;rounded=0;orthogonalLoop=1;jettySize=auto;html=1;entryX=0;entryY=0.5;entryDx=0;entryDy=0;" parent="1" source="BJCf3CcSnuQTVZGqPYbW-4" target="nLmVH7AognoMy0vvjyKV-10" edge="1">
          <mxGeometry x="-0.133" relative="1" as="geometry">
            <Array as="points">
              <mxPoint x="300" y="150" />
              <mxPoint x="300" y="310" />
            </Array>
            <mxPoint y="-1" as="offset" />
          </mxGeometry>
        </mxCell>
        <mxCell id="BJCf3CcSnuQTVZGqPYbW-4" value="Ректорат" style="shape=umlActor;verticalLabelPosition=bottom;verticalAlign=top;html=1;outlineConnect=0;" parent="1" vertex="1">
          <mxGeometry x="320" y="100" width="30" height="60" as="geometry" />
        </mxCell>
        <mxCell id="T1CTbCRKN-v9TWmt6bBc-2" value="Проект приказа&amp;nbsp;&lt;br&gt;о проведении конкурса" style="edgeStyle=orthogonalEdgeStyle;rounded=0;orthogonalLoop=1;jettySize=auto;html=1;" edge="1" parent="1" source="nLmVH7AognoMy0vvjyKV-6" target="BJCf3CcSnuQTVZGqPYbW-4">
          <mxGeometry x="0.7272" y="-50" relative="1" as="geometry">
            <Array as="points">
              <mxPoint x="170" y="570" />
              <mxPoint x="170" y="130" />
            </Array>
            <mxPoint as="offset" />
          </mxGeometry>
        </mxCell>
      </root>
    </mxGraphModel>
  </diagram>
  <diagram id="-rkw4W_odlW7xc4xalFk" name="Конкурсная процедура">
    <mxGraphModel dx="472" dy="947" grid="1" gridSize="10" guides="1" tooltips="1" connect="1" arrows="1" fold="1" page="1" pageScale="1" pageWidth="827" pageHeight="1169" math="0" shadow="0">
      <root>
        <mxCell id="0" />
        <mxCell id="1" parent="0" />
        <mxCell id="1djvyJ8jTHaSE-3Bcq-8-1" value="" style="group" parent="1" vertex="1" connectable="0">
          <mxGeometry x="630" y="470" width="160" height="180" as="geometry" />
        </mxCell>
        <mxCell id="1djvyJ8jTHaSE-3Bcq-8-2" value="Исполнитель:&lt;br&gt;коллегиальные органы" style="rounded=0;whiteSpace=wrap;html=1;align=left;" parent="1djvyJ8jTHaSE-3Bcq-8-1" vertex="1">
          <mxGeometry y="60" width="160" height="60" as="geometry" />
        </mxCell>
        <mxCell id="1djvyJ8jTHaSE-3Bcq-8-3" value="&lt;div style=&quot;&quot;&gt;&lt;span style=&quot;background-color: initial;&quot;&gt;Средства деятельности:&lt;br&gt;данные о кандидатах&lt;/span&gt;&lt;/div&gt;" style="rounded=0;whiteSpace=wrap;html=1;align=left;" parent="1djvyJ8jTHaSE-3Bcq-8-1" vertex="1">
          <mxGeometry y="120" width="160" height="60" as="geometry" />
        </mxCell>
        <mxCell id="1djvyJ8jTHaSE-3Bcq-8-4" value="Обсуждение кандидатов" style="rounded=0;whiteSpace=wrap;html=1;align=left;" parent="1djvyJ8jTHaSE-3Bcq-8-1" vertex="1">
          <mxGeometry width="160" height="60" as="geometry" />
        </mxCell>
        <mxCell id="1djvyJ8jTHaSE-3Bcq-8-5" value="" style="group" parent="1" vertex="1" connectable="0">
          <mxGeometry x="310" y="470" width="160" height="180" as="geometry" />
        </mxCell>
        <mxCell id="1djvyJ8jTHaSE-3Bcq-8-6" value="Исполнитель:&lt;br&gt;ученый совет" style="rounded=0;whiteSpace=wrap;html=1;align=left;" parent="1djvyJ8jTHaSE-3Bcq-8-5" vertex="1">
          <mxGeometry y="60" width="160" height="60" as="geometry" />
        </mxCell>
        <mxCell id="1djvyJ8jTHaSE-3Bcq-8-7" value="&lt;div style=&quot;&quot;&gt;&lt;span style=&quot;background-color: initial;&quot;&gt;Средства деятельности:&lt;br&gt;рекомендации кандидатов,&lt;br&gt;данные о кандидатах&lt;/span&gt;&lt;/div&gt;" style="rounded=0;whiteSpace=wrap;html=1;align=left;" parent="1djvyJ8jTHaSE-3Bcq-8-5" vertex="1">
          <mxGeometry y="120" width="160" height="60" as="geometry" />
        </mxCell>
        <mxCell id="1djvyJ8jTHaSE-3Bcq-8-8" value="Голосование ученого совета" style="rounded=0;whiteSpace=wrap;html=1;align=left;" parent="1djvyJ8jTHaSE-3Bcq-8-5" vertex="1">
          <mxGeometry width="160" height="60" as="geometry" />
        </mxCell>
        <mxCell id="1djvyJ8jTHaSE-3Bcq-8-9" value="" style="group" parent="1" vertex="1" connectable="0">
          <mxGeometry x="470" y="230" width="160" height="180" as="geometry" />
        </mxCell>
        <mxCell id="1djvyJ8jTHaSE-3Bcq-8-10" value="Исполнитель: отдел кадров" style="rounded=0;whiteSpace=wrap;html=1;align=left;" parent="1djvyJ8jTHaSE-3Bcq-8-9" vertex="1">
          <mxGeometry y="60" width="160" height="60" as="geometry" />
        </mxCell>
        <mxCell id="1djvyJ8jTHaSE-3Bcq-8-11" value="&lt;div style=&quot;&quot;&gt;&lt;span style=&quot;background-color: initial;&quot;&gt;Средства деятельности:&lt;br&gt;документы кандидатов,&lt;br&gt;компьютер,&lt;br&gt;MS Office&lt;/span&gt;&lt;/div&gt;" style="rounded=0;whiteSpace=wrap;html=1;align=left;" parent="1djvyJ8jTHaSE-3Bcq-8-9" vertex="1">
          <mxGeometry y="120" width="160" height="60" as="geometry" />
        </mxCell>
        <mxCell id="1djvyJ8jTHaSE-3Bcq-8-12" value="Прием документов" style="rounded=0;whiteSpace=wrap;html=1;align=left;" parent="1djvyJ8jTHaSE-3Bcq-8-9" vertex="1">
          <mxGeometry width="160" height="60" as="geometry" />
        </mxCell>
        <mxCell id="pWda6hDWk7Pof_ykCYZ0-6" value="Пакет документов" style="edgeStyle=orthogonalEdgeStyle;rounded=0;orthogonalLoop=1;jettySize=auto;html=1;entryX=0;entryY=0.5;entryDx=0;entryDy=0;" parent="1" source="pWda6hDWk7Pof_ykCYZ0-3" target="1djvyJ8jTHaSE-3Bcq-8-10" edge="1">
          <mxGeometry x="0.0769" y="20" relative="1" as="geometry">
            <mxPoint as="offset" />
          </mxGeometry>
        </mxCell>
        <mxCell id="pWda6hDWk7Pof_ykCYZ0-3" value="Кандидат" style="shape=umlActor;verticalLabelPosition=bottom;verticalAlign=top;html=1;outlineConnect=0;" parent="1" vertex="1">
          <mxGeometry x="310" y="290" width="30" height="60" as="geometry" />
        </mxCell>
        <mxCell id="pWda6hDWk7Pof_ykCYZ0-7" style="edgeStyle=orthogonalEdgeStyle;rounded=0;orthogonalLoop=1;jettySize=auto;html=1;entryX=0.5;entryY=0;entryDx=0;entryDy=0;" parent="1" source="1djvyJ8jTHaSE-3Bcq-8-10" target="1djvyJ8jTHaSE-3Bcq-8-4" edge="1">
          <mxGeometry relative="1" as="geometry">
            <mxPoint x="710" y="460" as="targetPoint" />
            <Array as="points">
              <mxPoint x="710" y="320" />
            </Array>
          </mxGeometry>
        </mxCell>
        <mxCell id="pWda6hDWk7Pof_ykCYZ0-8" value="Список кандидатов&lt;br&gt;и информация о них" style="edgeLabel;html=1;align=center;verticalAlign=middle;resizable=0;points=[];" parent="pWda6hDWk7Pof_ykCYZ0-7" vertex="1" connectable="0">
          <mxGeometry x="0.1217" y="4" relative="1" as="geometry">
            <mxPoint x="-4" y="1" as="offset" />
          </mxGeometry>
        </mxCell>
        <mxCell id="pWda6hDWk7Pof_ykCYZ0-9" style="edgeStyle=orthogonalEdgeStyle;rounded=0;orthogonalLoop=1;jettySize=auto;html=1;entryX=1;entryY=0.5;entryDx=0;entryDy=0;" parent="1" source="1djvyJ8jTHaSE-3Bcq-8-2" target="1djvyJ8jTHaSE-3Bcq-8-6" edge="1">
          <mxGeometry relative="1" as="geometry" />
        </mxCell>
        <mxCell id="pWda6hDWk7Pof_ykCYZ0-10" value="Рекомендации кандидатов" style="edgeLabel;html=1;align=center;verticalAlign=middle;resizable=0;points=[];" parent="pWda6hDWk7Pof_ykCYZ0-9" vertex="1" connectable="0">
          <mxGeometry x="0.225" relative="1" as="geometry">
            <mxPoint x="18" y="-20" as="offset" />
          </mxGeometry>
        </mxCell>
        <mxCell id="Sff3527XZXNrADwwJkoG-1" value="Приказ о проведении конкурса" style="edgeStyle=orthogonalEdgeStyle;rounded=0;orthogonalLoop=1;jettySize=auto;html=1;entryX=0;entryY=0.75;entryDx=0;entryDy=0;" edge="1" parent="1" source="mHGCOJPmrrctk9vhC5Ne-1" target="1djvyJ8jTHaSE-3Bcq-8-10">
          <mxGeometry x="-0.1818" y="20" relative="1" as="geometry">
            <Array as="points">
              <mxPoint x="115" y="440" />
              <mxPoint x="380" y="440" />
              <mxPoint x="380" y="335" />
            </Array>
            <mxPoint as="offset" />
          </mxGeometry>
        </mxCell>
        <mxCell id="mHGCOJPmrrctk9vhC5Ne-1" value="Отдел кадров" style="shape=umlActor;verticalLabelPosition=bottom;verticalAlign=top;html=1;outlineConnect=0;" parent="1" vertex="1">
          <mxGeometry x="100" y="530" width="30" height="60" as="geometry" />
        </mxCell>
        <mxCell id="mHGCOJPmrrctk9vhC5Ne-2" value="&lt;p class=&quot;a&quot;&gt;Список кандидатов прошедших&lt;br&gt;конкурсный отбор&lt;/p&gt;" style="edgeStyle=orthogonalEdgeStyle;rounded=0;orthogonalLoop=1;jettySize=auto;html=1;" parent="1" source="1djvyJ8jTHaSE-3Bcq-8-6" target="mHGCOJPmrrctk9vhC5Ne-1" edge="1">
          <mxGeometry y="-30" relative="1" as="geometry">
            <mxPoint as="offset" />
          </mxGeometry>
        </mxCell>
      </root>
    </mxGraphModel>
  </diagram>
  <diagram id="SdsygaPGK2x4eRt0gA15" name="Трудоустройство кандидата">
    <mxGraphModel dx="712" dy="947" grid="1" gridSize="10" guides="1" tooltips="1" connect="1" arrows="1" fold="1" page="1" pageScale="1" pageWidth="827" pageHeight="1169" math="0" shadow="0">
      <root>
        <mxCell id="0" />
        <mxCell id="1" parent="0" />
        <mxCell id="2d3fToPryk5thVfzMIA--1" value="" style="group;align=left;" parent="1" vertex="1" connectable="0">
          <mxGeometry x="180" y="615" width="160" height="180" as="geometry" />
        </mxCell>
        <mxCell id="2d3fToPryk5thVfzMIA--2" value="Исполнитель:&lt;br&gt;отдел кадров" style="rounded=0;whiteSpace=wrap;html=1;align=left;" parent="2d3fToPryk5thVfzMIA--1" vertex="1">
          <mxGeometry y="60" width="160" height="60" as="geometry" />
        </mxCell>
        <mxCell id="2d3fToPryk5thVfzMIA--3" value="&lt;div style=&quot;&quot;&gt;&lt;span style=&quot;background-color: initial;&quot;&gt;Средства деятельности:&lt;br&gt;бумага,&lt;br&gt;ручка&lt;/span&gt;&lt;/div&gt;" style="rounded=0;whiteSpace=wrap;html=1;align=left;" parent="2d3fToPryk5thVfzMIA--1" vertex="1">
          <mxGeometry y="120" width="160" height="60" as="geometry" />
        </mxCell>
        <mxCell id="2d3fToPryk5thVfzMIA--4" value="Заверение трудового договора" style="rounded=0;whiteSpace=wrap;html=1;align=left;" parent="2d3fToPryk5thVfzMIA--1" vertex="1">
          <mxGeometry width="160" height="60" as="geometry" />
        </mxCell>
        <mxCell id="2d3fToPryk5thVfzMIA--5" value="" style="group" parent="1" vertex="1" connectable="0">
          <mxGeometry x="200" y="300" width="160" height="180" as="geometry" />
        </mxCell>
        <mxCell id="2d3fToPryk5thVfzMIA--6" value="Исполнитель:&lt;br&gt;отдел кадров" style="rounded=0;whiteSpace=wrap;html=1;align=left;" parent="2d3fToPryk5thVfzMIA--5" vertex="1">
          <mxGeometry y="60" width="160" height="60" as="geometry" />
        </mxCell>
        <mxCell id="2d3fToPryk5thVfzMIA--7" value="&lt;div style=&quot;&quot;&gt;&lt;span style=&quot;background-color: initial;&quot;&gt;Средства деятельности:&lt;br&gt;компьютер,&lt;br&gt;MS Office,&lt;br&gt;принтер&lt;/span&gt;&lt;/div&gt;" style="rounded=0;whiteSpace=wrap;html=1;align=left;" parent="2d3fToPryk5thVfzMIA--5" vertex="1">
          <mxGeometry y="120" width="160" height="60" as="geometry" />
        </mxCell>
        <mxCell id="2d3fToPryk5thVfzMIA--8" value="Формирование трудового договора" style="rounded=0;whiteSpace=wrap;html=1;align=left;" parent="2d3fToPryk5thVfzMIA--5" vertex="1">
          <mxGeometry width="160" height="60" as="geometry" />
        </mxCell>
        <mxCell id="2wgEOnDA-L4yatOzmYAg-1" value="Трудовой договор" style="edgeStyle=orthogonalEdgeStyle;rounded=0;orthogonalLoop=1;jettySize=auto;html=1;entryX=0.5;entryY=0;entryDx=0;entryDy=0;entryPerimeter=0;" parent="1" target="ionLZK37-W_DeW4ULFjg-1" edge="1">
          <mxGeometry x="0.2558" y="5" relative="1" as="geometry">
            <mxPoint x="360" y="390" as="sourcePoint" />
            <Array as="points">
              <mxPoint x="360" y="390" />
              <mxPoint x="455" y="390" />
            </Array>
            <mxPoint as="offset" />
          </mxGeometry>
        </mxCell>
        <mxCell id="S2V4ZNyblurEZcKlL1Fs-3" style="edgeStyle=orthogonalEdgeStyle;rounded=0;orthogonalLoop=1;jettySize=auto;html=1;entryX=0;entryY=0.5;entryDx=0;entryDy=0;" parent="1" source="S2V4ZNyblurEZcKlL1Fs-1" target="2d3fToPryk5thVfzMIA--6" edge="1">
          <mxGeometry relative="1" as="geometry">
            <mxPoint x="210" y="380" as="targetPoint" />
            <Array as="points">
              <mxPoint x="90" y="390" />
              <mxPoint x="90" y="390" />
            </Array>
          </mxGeometry>
        </mxCell>
        <mxCell id="S2V4ZNyblurEZcKlL1Fs-5" value="Списки&amp;nbsp;кандидатов&lt;br&gt;прошедших конкурсный &lt;br&gt;отбор" style="edgeLabel;html=1;align=center;verticalAlign=middle;resizable=0;points=[];" parent="S2V4ZNyblurEZcKlL1Fs-3" vertex="1" connectable="0">
          <mxGeometry x="0.1143" relative="1" as="geometry">
            <mxPoint x="-8" y="-30" as="offset" />
          </mxGeometry>
        </mxCell>
        <mxCell id="S2V4ZNyblurEZcKlL1Fs-1" value="Отдел кадров" style="shape=umlActor;verticalLabelPosition=bottom;verticalAlign=top;html=1;outlineConnect=0;" parent="1" vertex="1">
          <mxGeometry x="30" y="350" width="30" height="60" as="geometry" />
        </mxCell>
        <mxCell id="ionLZK37-W_DeW4ULFjg-3" style="edgeStyle=orthogonalEdgeStyle;rounded=0;orthogonalLoop=1;jettySize=auto;html=1;entryX=1;entryY=0.5;entryDx=0;entryDy=0;" parent="1" source="ionLZK37-W_DeW4ULFjg-1" target="2d3fToPryk5thVfzMIA--2" edge="1">
          <mxGeometry relative="1" as="geometry" />
        </mxCell>
        <mxCell id="ionLZK37-W_DeW4ULFjg-4" value="Подписанный&lt;br&gt;трудовой договор" style="edgeLabel;html=1;align=center;verticalAlign=middle;resizable=0;points=[];" parent="ionLZK37-W_DeW4ULFjg-3" vertex="1" connectable="0">
          <mxGeometry x="-0.2696" relative="1" as="geometry">
            <mxPoint x="-30" y="-24" as="offset" />
          </mxGeometry>
        </mxCell>
        <mxCell id="ionLZK37-W_DeW4ULFjg-1" value="Кандидаи" style="shape=umlActor;verticalLabelPosition=bottom;verticalAlign=top;html=1;outlineConnect=0;" parent="1" vertex="1">
          <mxGeometry x="440" y="510" width="30" height="60" as="geometry" />
        </mxCell>
        <mxCell id="-NDaqwUmXgbwq_uqn_uR-1" value="Кафедра" style="shape=umlActor;verticalLabelPosition=bottom;verticalAlign=top;html=1;outlineConnect=0;" parent="1" vertex="1">
          <mxGeometry x="40" y="670" width="30" height="60" as="geometry" />
        </mxCell>
        <mxCell id="-NDaqwUmXgbwq_uqn_uR-2" value="Трудоустроенный&lt;br&gt;кандидат" style="edgeStyle=orthogonalEdgeStyle;rounded=0;orthogonalLoop=1;jettySize=auto;html=1;" parent="1" source="2d3fToPryk5thVfzMIA--2" target="-NDaqwUmXgbwq_uqn_uR-1" edge="1">
          <mxGeometry x="0.0909" y="-15" relative="1" as="geometry">
            <Array as="points">
              <mxPoint x="100" y="705" />
              <mxPoint x="100" y="705" />
            </Array>
            <mxPoint as="offset" />
          </mxGeometry>
        </mxCell>
      </root>
    </mxGraphModel>
  </diagram>
  <diagram id="H2kx8c3ztIsJ-WLPdZDF" name="Дерево причин">
    <mxGraphModel dx="712" dy="947" grid="1" gridSize="10" guides="1" tooltips="1" connect="1" arrows="1" fold="1" page="1" pageScale="1" pageWidth="827" pageHeight="1169" math="0" shadow="0">
      <root>
        <mxCell id="0" />
        <mxCell id="1" parent="0" />
        <mxCell id="bSwgliS4dDfykmmXDO9H-1" value="Проблема низкой конкуренции в конкурсном отборе ППС" style="rounded=0;whiteSpace=wrap;html=1;" parent="1" vertex="1">
          <mxGeometry x="360" y="180" width="120" height="60" as="geometry" />
        </mxCell>
        <mxCell id="bSwgliS4dDfykmmXDO9H-2" value="Проблема с недостаточной распространенностью информации о проведении конкурса&amp;nbsp;" style="rounded=0;whiteSpace=wrap;html=1;" parent="1" vertex="1">
          <mxGeometry x="160" y="280" width="160" height="80" as="geometry" />
        </mxCell>
        <mxCell id="bSwgliS4dDfykmmXDO9H-3" value="Проблема сложного процесса подачи документов&amp;nbsp;" style="rounded=0;whiteSpace=wrap;html=1;" parent="1" vertex="1">
          <mxGeometry x="520" y="280" width="160" height="80" as="geometry" />
        </mxCell>
        <mxCell id="bSwgliS4dDfykmmXDO9H-4" value="Плохо выстроенная структура сайта" style="rounded=0;whiteSpace=wrap;html=1;" parent="1" vertex="1">
          <mxGeometry x="100" y="420" width="120" height="60" as="geometry" />
        </mxCell>
        <mxCell id="bSwgliS4dDfykmmXDO9H-5" value="Остутсвие личного оповещения о проведении конкурса" style="rounded=0;whiteSpace=wrap;html=1;" parent="1" vertex="1">
          <mxGeometry x="260" y="420" width="120" height="60" as="geometry" />
        </mxCell>
        <mxCell id="bSwgliS4dDfykmmXDO9H-7" value="Необходимость проверки документов вручную" style="rounded=0;whiteSpace=wrap;html=1;" parent="1" vertex="1">
          <mxGeometry x="460" y="420" width="120" height="60" as="geometry" />
        </mxCell>
        <mxCell id="bSwgliS4dDfykmmXDO9H-8" value="Плохо оформленные или отсутствующие шаблоны заявлений" style="rounded=0;whiteSpace=wrap;html=1;" parent="1" vertex="1">
          <mxGeometry x="620" y="420" width="120" height="60" as="geometry" />
        </mxCell>
        <mxCell id="2rihRwJEnniPSWd5ozdM-1" value="" style="endArrow=classic;html=1;rounded=0;entryX=0.5;entryY=0;entryDx=0;entryDy=0;exitX=0.5;exitY=1;exitDx=0;exitDy=0;" parent="1" source="bSwgliS4dDfykmmXDO9H-1" target="bSwgliS4dDfykmmXDO9H-2" edge="1">
          <mxGeometry width="50" height="50" relative="1" as="geometry">
            <mxPoint x="390" y="470" as="sourcePoint" />
            <mxPoint x="440" y="420" as="targetPoint" />
          </mxGeometry>
        </mxCell>
        <mxCell id="2rihRwJEnniPSWd5ozdM-2" value="" style="endArrow=classic;html=1;rounded=0;entryX=0.5;entryY=0;entryDx=0;entryDy=0;exitX=0.5;exitY=1;exitDx=0;exitDy=0;" parent="1" source="bSwgliS4dDfykmmXDO9H-1" target="bSwgliS4dDfykmmXDO9H-3" edge="1">
          <mxGeometry width="50" height="50" relative="1" as="geometry">
            <mxPoint x="390" y="470" as="sourcePoint" />
            <mxPoint x="440" y="420" as="targetPoint" />
          </mxGeometry>
        </mxCell>
        <mxCell id="2rihRwJEnniPSWd5ozdM-3" value="" style="endArrow=classic;html=1;rounded=0;entryX=0.5;entryY=0;entryDx=0;entryDy=0;exitX=0.5;exitY=1;exitDx=0;exitDy=0;" parent="1" source="bSwgliS4dDfykmmXDO9H-2" target="bSwgliS4dDfykmmXDO9H-5" edge="1">
          <mxGeometry width="50" height="50" relative="1" as="geometry">
            <mxPoint x="390" y="470" as="sourcePoint" />
            <mxPoint x="440" y="420" as="targetPoint" />
          </mxGeometry>
        </mxCell>
        <mxCell id="2rihRwJEnniPSWd5ozdM-4" value="" style="endArrow=classic;html=1;rounded=0;entryX=0.5;entryY=0;entryDx=0;entryDy=0;exitX=0.5;exitY=1;exitDx=0;exitDy=0;" parent="1" source="bSwgliS4dDfykmmXDO9H-2" target="bSwgliS4dDfykmmXDO9H-4" edge="1">
          <mxGeometry width="50" height="50" relative="1" as="geometry">
            <mxPoint x="390" y="470" as="sourcePoint" />
            <mxPoint x="440" y="420" as="targetPoint" />
          </mxGeometry>
        </mxCell>
        <mxCell id="2rihRwJEnniPSWd5ozdM-5" value="" style="endArrow=classic;html=1;rounded=0;entryX=0.5;entryY=0;entryDx=0;entryDy=0;exitX=0.5;exitY=1;exitDx=0;exitDy=0;" parent="1" source="bSwgliS4dDfykmmXDO9H-3" target="bSwgliS4dDfykmmXDO9H-8" edge="1">
          <mxGeometry width="50" height="50" relative="1" as="geometry">
            <mxPoint x="390" y="470" as="sourcePoint" />
            <mxPoint x="440" y="420" as="targetPoint" />
          </mxGeometry>
        </mxCell>
        <mxCell id="2rihRwJEnniPSWd5ozdM-6" value="" style="endArrow=classic;html=1;rounded=0;entryX=0.5;entryY=0;entryDx=0;entryDy=0;exitX=0.5;exitY=1;exitDx=0;exitDy=0;" parent="1" source="bSwgliS4dDfykmmXDO9H-3" target="bSwgliS4dDfykmmXDO9H-7" edge="1">
          <mxGeometry width="50" height="50" relative="1" as="geometry">
            <mxPoint x="390" y="470" as="sourcePoint" />
            <mxPoint x="440" y="420" as="targetPoint" />
          </mxGeometry>
        </mxCell>
      </root>
    </mxGraphModel>
  </diagram>
  <diagram id="eyLS0t2YJ4LZ3SgJ4YW7" name="Дерево целей">
    <mxGraphModel dx="712" dy="947" grid="1" gridSize="10" guides="1" tooltips="1" connect="1" arrows="1" fold="1" page="1" pageScale="1" pageWidth="827" pageHeight="1169" math="0" shadow="0">
      <root>
        <mxCell id="0" />
        <mxCell id="1" parent="0" />
        <mxCell id="iwYJch21fcIKrYaxJvZk-3" value="Повысить конкуренцию в конкрусном отборе ППС" style="rounded=0;whiteSpace=wrap;html=1;" parent="1" vertex="1">
          <mxGeometry x="360" y="180" width="120" height="60" as="geometry" />
        </mxCell>
        <mxCell id="iwYJch21fcIKrYaxJvZk-6" value="Повысить распространенность информации о проведении конкурса&amp;nbsp;" style="rounded=0;whiteSpace=wrap;html=1;" parent="1" vertex="1">
          <mxGeometry x="160" y="280" width="160" height="80" as="geometry" />
        </mxCell>
        <mxCell id="iwYJch21fcIKrYaxJvZk-9" value="Упростить процесс подачи документов&amp;nbsp;" style="rounded=0;whiteSpace=wrap;html=1;" parent="1" vertex="1">
          <mxGeometry x="520" y="280" width="160" height="80" as="geometry" />
        </mxCell>
        <mxCell id="iwYJch21fcIKrYaxJvZk-10" value="Улучшить структуру размещения информации на сайте" style="rounded=0;whiteSpace=wrap;html=1;" parent="1" vertex="1">
          <mxGeometry x="100" y="420" width="120" height="60" as="geometry" />
        </mxCell>
        <mxCell id="iwYJch21fcIKrYaxJvZk-11" value="Внедрить способы личного оповещения кандидатов" style="rounded=0;whiteSpace=wrap;html=1;" parent="1" vertex="1">
          <mxGeometry x="260" y="420" width="120" height="60" as="geometry" />
        </mxCell>
        <mxCell id="iwYJch21fcIKrYaxJvZk-12" value="Автоматизировать проверку документов" style="rounded=0;whiteSpace=wrap;html=1;" parent="1" vertex="1">
          <mxGeometry x="460" y="420" width="120" height="60" as="geometry" />
        </mxCell>
        <mxCell id="iwYJch21fcIKrYaxJvZk-13" value="Составить понятные шаблоны заявлений" style="rounded=0;whiteSpace=wrap;html=1;" parent="1" vertex="1">
          <mxGeometry x="620" y="420" width="120" height="60" as="geometry" />
        </mxCell>
        <mxCell id="jUFFiTuEQTwr6Sa_bdbt-1" value="Создать единый портал подачи заявок на конкурс ППС" style="rounded=0;whiteSpace=wrap;html=1;" parent="1" vertex="1">
          <mxGeometry x="250" y="530" width="140" height="70" as="geometry" />
        </mxCell>
        <mxCell id="iaeW6jVXjRzO9PYS3Xgn-2" value="Предоставить возможность подачи заявления через заполнение полей на сайте вуза&amp;nbsp;" style="whiteSpace=wrap;html=1;" parent="1" vertex="1">
          <mxGeometry x="450" y="530" width="140" height="70" as="geometry" />
        </mxCell>
        <mxCell id="iaeW6jVXjRzO9PYS3Xgn-3" value="Внедрить систему проверки сканов документов и заявлений" style="whiteSpace=wrap;html=1;" parent="1" vertex="1">
          <mxGeometry x="610" y="530" width="140" height="70" as="geometry" />
        </mxCell>
        <mxCell id="iaeW6jVXjRzO9PYS3Xgn-4" value="Добавить на сайте вуза блог о профессиональной жизни вуза с возможностью подписки" style="rounded=0;whiteSpace=wrap;html=1;" parent="1" vertex="1">
          <mxGeometry x="90" y="530" width="140" height="70" as="geometry" />
        </mxCell>
        <mxCell id="Rvbkqj9eMBlzPxRQhlMj-1" value="a1" style="text;html=1;align=center;verticalAlign=middle;resizable=0;points=[];autosize=1;strokeColor=none;fillColor=none;" parent="1" vertex="1">
          <mxGeometry x="320" y="305" width="40" height="30" as="geometry" />
        </mxCell>
        <mxCell id="Rvbkqj9eMBlzPxRQhlMj-2" value="a2" style="text;html=1;align=center;verticalAlign=middle;resizable=0;points=[];autosize=1;strokeColor=none;fillColor=none;" parent="1" vertex="1">
          <mxGeometry x="480" y="305" width="40" height="30" as="geometry" />
        </mxCell>
        <mxCell id="Rvbkqj9eMBlzPxRQhlMj-3" value="a3" style="text;html=1;align=center;verticalAlign=middle;resizable=0;points=[];autosize=1;strokeColor=none;fillColor=none;" parent="1" vertex="1">
          <mxGeometry x="60" y="435" width="40" height="30" as="geometry" />
        </mxCell>
        <mxCell id="Rvbkqj9eMBlzPxRQhlMj-4" value="a4" style="text;html=1;align=center;verticalAlign=middle;resizable=0;points=[];autosize=1;strokeColor=none;fillColor=none;" parent="1" vertex="1">
          <mxGeometry x="380" y="435" width="40" height="30" as="geometry" />
        </mxCell>
        <mxCell id="Rvbkqj9eMBlzPxRQhlMj-5" value="a5" style="text;html=1;align=center;verticalAlign=middle;resizable=0;points=[];autosize=1;strokeColor=none;fillColor=none;" parent="1" vertex="1">
          <mxGeometry x="420" y="435" width="40" height="30" as="geometry" />
        </mxCell>
        <mxCell id="Rvbkqj9eMBlzPxRQhlMj-6" value="a6" style="text;html=1;align=center;verticalAlign=middle;resizable=0;points=[];autosize=1;strokeColor=none;fillColor=none;" parent="1" vertex="1">
          <mxGeometry x="740" y="435" width="40" height="30" as="geometry" />
        </mxCell>
        <mxCell id="Rvbkqj9eMBlzPxRQhlMj-7" value="a7" style="text;html=1;align=center;verticalAlign=middle;resizable=0;points=[];autosize=1;strokeColor=none;fillColor=none;" parent="1" vertex="1">
          <mxGeometry x="140" y="600" width="40" height="30" as="geometry" />
        </mxCell>
        <mxCell id="Rvbkqj9eMBlzPxRQhlMj-8" value="a8" style="text;strokeColor=none;align=center;fillColor=none;html=1;verticalAlign=middle;whiteSpace=wrap;rounded=0;" parent="1" vertex="1">
          <mxGeometry x="290" y="600" width="60" height="30" as="geometry" />
        </mxCell>
        <mxCell id="Rvbkqj9eMBlzPxRQhlMj-9" value="a9" style="text;html=1;align=center;verticalAlign=middle;resizable=0;points=[];autosize=1;strokeColor=none;fillColor=none;" parent="1" vertex="1">
          <mxGeometry x="500" y="600" width="40" height="30" as="geometry" />
        </mxCell>
        <mxCell id="Rvbkqj9eMBlzPxRQhlMj-10" value="a10" style="text;strokeColor=none;align=center;fillColor=none;html=1;verticalAlign=middle;whiteSpace=wrap;rounded=0;" parent="1" vertex="1">
          <mxGeometry x="650" y="600" width="60" height="30" as="geometry" />
        </mxCell>
        <mxCell id="YzIgNqxrUp9shofwUqC6-3" value="" style="endArrow=classic;html=1;rounded=0;entryX=1;entryY=0;entryDx=0;entryDy=0;exitX=0.5;exitY=1;exitDx=0;exitDy=0;" parent="1" source="iwYJch21fcIKrYaxJvZk-12" target="jUFFiTuEQTwr6Sa_bdbt-1" edge="1">
          <mxGeometry width="50" height="50" relative="1" as="geometry">
            <mxPoint x="410" y="500" as="sourcePoint" />
            <mxPoint x="460" y="450" as="targetPoint" />
          </mxGeometry>
        </mxCell>
        <mxCell id="YzIgNqxrUp9shofwUqC6-4" value="" style="endArrow=classic;html=1;rounded=0;entryX=0.5;entryY=0;entryDx=0;entryDy=0;exitX=0.5;exitY=1;exitDx=0;exitDy=0;" parent="1" source="iwYJch21fcIKrYaxJvZk-12" target="iaeW6jVXjRzO9PYS3Xgn-3" edge="1">
          <mxGeometry width="50" height="50" relative="1" as="geometry">
            <mxPoint x="410" y="500" as="sourcePoint" />
            <mxPoint x="460" y="450" as="targetPoint" />
          </mxGeometry>
        </mxCell>
        <mxCell id="YzIgNqxrUp9shofwUqC6-5" value="" style="endArrow=classic;html=1;rounded=0;entryX=0.5;entryY=0;entryDx=0;entryDy=0;exitX=0.5;exitY=1;exitDx=0;exitDy=0;" parent="1" source="iwYJch21fcIKrYaxJvZk-12" target="iaeW6jVXjRzO9PYS3Xgn-2" edge="1">
          <mxGeometry width="50" height="50" relative="1" as="geometry">
            <mxPoint x="410" y="500" as="sourcePoint" />
            <mxPoint x="460" y="450" as="targetPoint" />
          </mxGeometry>
        </mxCell>
        <mxCell id="YzIgNqxrUp9shofwUqC6-6" value="" style="endArrow=classic;html=1;rounded=0;entryX=0.5;entryY=0;entryDx=0;entryDy=0;exitX=0.5;exitY=1;exitDx=0;exitDy=0;" parent="1" source="iwYJch21fcIKrYaxJvZk-13" target="iaeW6jVXjRzO9PYS3Xgn-3" edge="1">
          <mxGeometry width="50" height="50" relative="1" as="geometry">
            <mxPoint x="410" y="500" as="sourcePoint" />
            <mxPoint x="460" y="450" as="targetPoint" />
          </mxGeometry>
        </mxCell>
        <mxCell id="YzIgNqxrUp9shofwUqC6-7" value="" style="endArrow=classic;html=1;rounded=0;exitX=0.5;exitY=1;exitDx=0;exitDy=0;entryX=0.5;entryY=0;entryDx=0;entryDy=0;" parent="1" source="iwYJch21fcIKrYaxJvZk-13" target="iaeW6jVXjRzO9PYS3Xgn-2" edge="1">
          <mxGeometry width="50" height="50" relative="1" as="geometry">
            <mxPoint x="410" y="500" as="sourcePoint" />
            <mxPoint x="520" y="530" as="targetPoint" />
          </mxGeometry>
        </mxCell>
        <mxCell id="YzIgNqxrUp9shofwUqC6-8" value="" style="endArrow=classic;html=1;rounded=0;entryX=1;entryY=0;entryDx=0;entryDy=0;exitX=0.5;exitY=1;exitDx=0;exitDy=0;" parent="1" source="iwYJch21fcIKrYaxJvZk-13" target="jUFFiTuEQTwr6Sa_bdbt-1" edge="1">
          <mxGeometry width="50" height="50" relative="1" as="geometry">
            <mxPoint x="410" y="500" as="sourcePoint" />
            <mxPoint x="460" y="450" as="targetPoint" />
          </mxGeometry>
        </mxCell>
        <mxCell id="YzIgNqxrUp9shofwUqC6-10" value="" style="endArrow=classic;html=1;rounded=0;entryX=0.5;entryY=0;entryDx=0;entryDy=0;" parent="1" target="iaeW6jVXjRzO9PYS3Xgn-4" edge="1">
          <mxGeometry width="50" height="50" relative="1" as="geometry">
            <mxPoint x="320" y="480" as="sourcePoint" />
            <mxPoint x="310" y="430" as="targetPoint" />
          </mxGeometry>
        </mxCell>
        <mxCell id="YzIgNqxrUp9shofwUqC6-11" value="" style="endArrow=classic;html=1;rounded=0;entryX=0.5;entryY=0;entryDx=0;entryDy=0;exitX=0.5;exitY=1;exitDx=0;exitDy=0;" parent="1" source="iwYJch21fcIKrYaxJvZk-11" target="jUFFiTuEQTwr6Sa_bdbt-1" edge="1">
          <mxGeometry width="50" height="50" relative="1" as="geometry">
            <mxPoint x="260" y="480" as="sourcePoint" />
            <mxPoint x="310" y="430" as="targetPoint" />
          </mxGeometry>
        </mxCell>
        <mxCell id="YzIgNqxrUp9shofwUqC6-12" value="" style="endArrow=classic;html=1;rounded=0;entryX=0.5;entryY=0;entryDx=0;entryDy=0;exitX=0.5;exitY=1;exitDx=0;exitDy=0;" parent="1" source="iwYJch21fcIKrYaxJvZk-10" target="jUFFiTuEQTwr6Sa_bdbt-1" edge="1">
          <mxGeometry width="50" height="50" relative="1" as="geometry">
            <mxPoint x="260" y="480" as="sourcePoint" />
            <mxPoint x="310" y="430" as="targetPoint" />
          </mxGeometry>
        </mxCell>
        <mxCell id="YzIgNqxrUp9shofwUqC6-13" value="" style="endArrow=classic;html=1;rounded=0;exitX=0.5;exitY=1;exitDx=0;exitDy=0;entryX=0.5;entryY=0;entryDx=0;entryDy=0;" parent="1" source="iwYJch21fcIKrYaxJvZk-10" target="iaeW6jVXjRzO9PYS3Xgn-4" edge="1">
          <mxGeometry width="50" height="50" relative="1" as="geometry">
            <mxPoint x="160" y="490" as="sourcePoint" />
            <mxPoint x="310" y="430" as="targetPoint" />
          </mxGeometry>
        </mxCell>
        <mxCell id="YzIgNqxrUp9shofwUqC6-14" value="" style="endArrow=classic;html=1;rounded=0;entryX=0.5;entryY=0;entryDx=0;entryDy=0;exitX=0.5;exitY=1;exitDx=0;exitDy=0;" parent="1" source="iwYJch21fcIKrYaxJvZk-3" target="iwYJch21fcIKrYaxJvZk-6" edge="1">
          <mxGeometry width="50" height="50" relative="1" as="geometry">
            <mxPoint x="370" y="400" as="sourcePoint" />
            <mxPoint x="420" y="350" as="targetPoint" />
          </mxGeometry>
        </mxCell>
        <mxCell id="YzIgNqxrUp9shofwUqC6-15" value="" style="endArrow=classic;html=1;rounded=0;entryX=0.5;entryY=0;entryDx=0;entryDy=0;exitX=0.5;exitY=1;exitDx=0;exitDy=0;" parent="1" source="iwYJch21fcIKrYaxJvZk-3" target="iwYJch21fcIKrYaxJvZk-9" edge="1">
          <mxGeometry width="50" height="50" relative="1" as="geometry">
            <mxPoint x="370" y="400" as="sourcePoint" />
            <mxPoint x="420" y="350" as="targetPoint" />
          </mxGeometry>
        </mxCell>
        <mxCell id="YzIgNqxrUp9shofwUqC6-16" value="" style="endArrow=classic;html=1;rounded=0;entryX=0.5;entryY=0;entryDx=0;entryDy=0;exitX=0.5;exitY=1;exitDx=0;exitDy=0;" parent="1" source="iwYJch21fcIKrYaxJvZk-6" target="iwYJch21fcIKrYaxJvZk-10" edge="1">
          <mxGeometry width="50" height="50" relative="1" as="geometry">
            <mxPoint x="370" y="400" as="sourcePoint" />
            <mxPoint x="420" y="350" as="targetPoint" />
          </mxGeometry>
        </mxCell>
        <mxCell id="YzIgNqxrUp9shofwUqC6-17" value="" style="endArrow=classic;html=1;rounded=0;entryX=0.5;entryY=0;entryDx=0;entryDy=0;exitX=0.5;exitY=1;exitDx=0;exitDy=0;" parent="1" source="iwYJch21fcIKrYaxJvZk-6" target="iwYJch21fcIKrYaxJvZk-11" edge="1">
          <mxGeometry width="50" height="50" relative="1" as="geometry">
            <mxPoint x="370" y="400" as="sourcePoint" />
            <mxPoint x="420" y="350" as="targetPoint" />
          </mxGeometry>
        </mxCell>
        <mxCell id="YzIgNqxrUp9shofwUqC6-18" value="" style="endArrow=classic;html=1;rounded=0;entryX=0.5;entryY=0;entryDx=0;entryDy=0;exitX=0.5;exitY=1;exitDx=0;exitDy=0;" parent="1" source="iwYJch21fcIKrYaxJvZk-9" target="iwYJch21fcIKrYaxJvZk-13" edge="1">
          <mxGeometry width="50" height="50" relative="1" as="geometry">
            <mxPoint x="370" y="400" as="sourcePoint" />
            <mxPoint x="420" y="350" as="targetPoint" />
          </mxGeometry>
        </mxCell>
        <mxCell id="YzIgNqxrUp9shofwUqC6-19" value="" style="endArrow=classic;html=1;rounded=0;entryX=0.5;entryY=0;entryDx=0;entryDy=0;exitX=0.5;exitY=1;exitDx=0;exitDy=0;" parent="1" source="iwYJch21fcIKrYaxJvZk-9" target="iwYJch21fcIKrYaxJvZk-12" edge="1">
          <mxGeometry width="50" height="50" relative="1" as="geometry">
            <mxPoint x="370" y="400" as="sourcePoint" />
            <mxPoint x="420" y="350" as="targetPoint" />
          </mxGeometry>
        </mxCell>
      </root>
    </mxGraphModel>
  </diagram>
  <diagram id="473I-5vSwS_spD3NavtJ" name="Выявленные приоритеты">
    <mxGraphModel dx="712" dy="940" grid="1" gridSize="10" guides="1" tooltips="1" connect="1" arrows="1" fold="1" page="1" pageScale="1" pageWidth="827" pageHeight="1169" math="0" shadow="0">
      <root>
        <mxCell id="0" />
        <mxCell id="1" parent="0" />
        <mxCell id="i2oMCRo0bCXQBu31WwON-1" value="Повысить конкуренцию в конкрусном отборе ППС" style="rounded=0;whiteSpace=wrap;html=1;" parent="1" vertex="1">
          <mxGeometry x="360" y="180" width="120" height="60" as="geometry" />
        </mxCell>
        <mxCell id="i2oMCRo0bCXQBu31WwON-2" value="Повысить распространенность информации о проведении конкурса&amp;nbsp;" style="rounded=0;whiteSpace=wrap;html=1;" parent="1" vertex="1">
          <mxGeometry x="160" y="280" width="160" height="80" as="geometry" />
        </mxCell>
        <mxCell id="i2oMCRo0bCXQBu31WwON-3" value="Упростить процесс подачи документов&amp;nbsp;" style="rounded=0;whiteSpace=wrap;html=1;" parent="1" vertex="1">
          <mxGeometry x="520" y="280" width="160" height="80" as="geometry" />
        </mxCell>
        <mxCell id="i2oMCRo0bCXQBu31WwON-4" value="Улучшить структуру размещения информации на сайте" style="rounded=0;whiteSpace=wrap;html=1;" parent="1" vertex="1">
          <mxGeometry x="100" y="420" width="120" height="60" as="geometry" />
        </mxCell>
        <mxCell id="i2oMCRo0bCXQBu31WwON-5" value="Внедрить способы личного оповещения кандидатов" style="rounded=0;whiteSpace=wrap;html=1;" parent="1" vertex="1">
          <mxGeometry x="260" y="420" width="120" height="60" as="geometry" />
        </mxCell>
        <mxCell id="i2oMCRo0bCXQBu31WwON-6" value="Автоматизировать проверку документов" style="rounded=0;whiteSpace=wrap;html=1;" parent="1" vertex="1">
          <mxGeometry x="460" y="420" width="120" height="60" as="geometry" />
        </mxCell>
        <mxCell id="i2oMCRo0bCXQBu31WwON-7" value="Составить понятные шаблоны заявлений" style="rounded=0;whiteSpace=wrap;html=1;" parent="1" vertex="1">
          <mxGeometry x="620" y="420" width="120" height="60" as="geometry" />
        </mxCell>
        <mxCell id="i2oMCRo0bCXQBu31WwON-12" value="a1" style="text;html=1;align=center;verticalAlign=middle;resizable=0;points=[];autosize=1;strokeColor=none;fillColor=none;" parent="1" vertex="1">
          <mxGeometry x="320" y="305" width="40" height="30" as="geometry" />
        </mxCell>
        <mxCell id="i2oMCRo0bCXQBu31WwON-13" value="a2" style="text;html=1;align=center;verticalAlign=middle;resizable=0;points=[];autosize=1;strokeColor=none;fillColor=none;" parent="1" vertex="1">
          <mxGeometry x="480" y="305" width="40" height="30" as="geometry" />
        </mxCell>
        <mxCell id="i2oMCRo0bCXQBu31WwON-14" value="a3" style="text;html=1;align=center;verticalAlign=middle;resizable=0;points=[];autosize=1;strokeColor=none;fillColor=none;" parent="1" vertex="1">
          <mxGeometry x="60" y="435" width="40" height="30" as="geometry" />
        </mxCell>
        <mxCell id="i2oMCRo0bCXQBu31WwON-15" value="a4" style="text;html=1;align=center;verticalAlign=middle;resizable=0;points=[];autosize=1;strokeColor=none;fillColor=none;" parent="1" vertex="1">
          <mxGeometry x="380" y="435" width="40" height="30" as="geometry" />
        </mxCell>
        <mxCell id="i2oMCRo0bCXQBu31WwON-16" value="a5" style="text;html=1;align=center;verticalAlign=middle;resizable=0;points=[];autosize=1;strokeColor=none;fillColor=none;" parent="1" vertex="1">
          <mxGeometry x="420" y="435" width="40" height="30" as="geometry" />
        </mxCell>
        <mxCell id="i2oMCRo0bCXQBu31WwON-17" value="a6" style="text;html=1;align=center;verticalAlign=middle;resizable=0;points=[];autosize=1;strokeColor=none;fillColor=none;" parent="1" vertex="1">
          <mxGeometry x="740" y="435" width="40" height="30" as="geometry" />
        </mxCell>
        <mxCell id="i2oMCRo0bCXQBu31WwON-18" value="a7" style="text;html=1;align=center;verticalAlign=middle;resizable=0;points=[];autosize=1;strokeColor=none;fillColor=none;" parent="1" vertex="1">
          <mxGeometry x="140" y="670" width="40" height="30" as="geometry" />
        </mxCell>
        <mxCell id="i2oMCRo0bCXQBu31WwON-19" value="a8" style="text;strokeColor=none;align=center;fillColor=none;html=1;verticalAlign=middle;whiteSpace=wrap;rounded=0;" parent="1" vertex="1">
          <mxGeometry x="290" y="670" width="60" height="30" as="geometry" />
        </mxCell>
        <mxCell id="i2oMCRo0bCXQBu31WwON-20" value="a9" style="text;html=1;align=center;verticalAlign=middle;resizable=0;points=[];autosize=1;strokeColor=none;fillColor=none;" parent="1" vertex="1">
          <mxGeometry x="500" y="670" width="40" height="30" as="geometry" />
        </mxCell>
        <mxCell id="i2oMCRo0bCXQBu31WwON-21" value="a10" style="text;strokeColor=none;align=center;fillColor=none;html=1;verticalAlign=middle;whiteSpace=wrap;rounded=0;" parent="1" vertex="1">
          <mxGeometry x="650" y="670" width="60" height="30" as="geometry" />
        </mxCell>
        <mxCell id="i2oMCRo0bCXQBu31WwON-22" value="" style="endArrow=classic;html=1;rounded=0;entryX=1;entryY=0;entryDx=0;entryDy=0;exitX=0.5;exitY=1;exitDx=0;exitDy=0;" parent="1" source="i2oMCRo0bCXQBu31WwON-6" edge="1">
          <mxGeometry width="50" height="50" relative="1" as="geometry">
            <mxPoint x="410" y="500" as="sourcePoint" />
            <mxPoint x="390" y="600" as="targetPoint" />
          </mxGeometry>
        </mxCell>
        <mxCell id="i2oMCRo0bCXQBu31WwON-23" value="" style="endArrow=classic;html=1;rounded=0;entryX=0.5;entryY=0;entryDx=0;entryDy=0;exitX=0.5;exitY=1;exitDx=0;exitDy=0;" parent="1" source="i2oMCRo0bCXQBu31WwON-6" edge="1">
          <mxGeometry width="50" height="50" relative="1" as="geometry">
            <mxPoint x="410" y="500" as="sourcePoint" />
            <mxPoint x="680" y="600" as="targetPoint" />
          </mxGeometry>
        </mxCell>
        <mxCell id="i2oMCRo0bCXQBu31WwON-24" value="" style="endArrow=classic;html=1;rounded=0;entryX=0.5;entryY=0;entryDx=0;entryDy=0;exitX=0.5;exitY=1;exitDx=0;exitDy=0;" parent="1" source="i2oMCRo0bCXQBu31WwON-6" edge="1">
          <mxGeometry width="50" height="50" relative="1" as="geometry">
            <mxPoint x="410" y="500" as="sourcePoint" />
            <mxPoint x="520" y="600" as="targetPoint" />
          </mxGeometry>
        </mxCell>
        <mxCell id="i2oMCRo0bCXQBu31WwON-25" value="" style="endArrow=classic;html=1;rounded=0;entryX=0.5;entryY=0;entryDx=0;entryDy=0;exitX=0.5;exitY=1;exitDx=0;exitDy=0;" parent="1" source="i2oMCRo0bCXQBu31WwON-7" edge="1">
          <mxGeometry width="50" height="50" relative="1" as="geometry">
            <mxPoint x="410" y="500" as="sourcePoint" />
            <mxPoint x="680" y="600" as="targetPoint" />
          </mxGeometry>
        </mxCell>
        <mxCell id="i2oMCRo0bCXQBu31WwON-26" value="" style="endArrow=classic;html=1;rounded=0;exitX=0.5;exitY=1;exitDx=0;exitDy=0;entryX=0.5;entryY=0;entryDx=0;entryDy=0;" parent="1" source="i2oMCRo0bCXQBu31WwON-7" edge="1">
          <mxGeometry width="50" height="50" relative="1" as="geometry">
            <mxPoint x="410" y="500" as="sourcePoint" />
            <mxPoint x="520" y="600" as="targetPoint" />
          </mxGeometry>
        </mxCell>
        <mxCell id="i2oMCRo0bCXQBu31WwON-27" value="" style="endArrow=classic;html=1;rounded=0;entryX=1;entryY=0;entryDx=0;entryDy=0;exitX=0.5;exitY=1;exitDx=0;exitDy=0;" parent="1" source="i2oMCRo0bCXQBu31WwON-7" edge="1">
          <mxGeometry width="50" height="50" relative="1" as="geometry">
            <mxPoint x="410" y="500" as="sourcePoint" />
            <mxPoint x="390" y="600" as="targetPoint" />
          </mxGeometry>
        </mxCell>
        <mxCell id="i2oMCRo0bCXQBu31WwON-28" value="" style="endArrow=classic;html=1;rounded=0;entryX=0.5;entryY=0;entryDx=0;entryDy=0;" parent="1" edge="1">
          <mxGeometry width="50" height="50" relative="1" as="geometry">
            <mxPoint x="320" y="480" as="sourcePoint" />
            <mxPoint x="160" y="600" as="targetPoint" />
          </mxGeometry>
        </mxCell>
        <mxCell id="i2oMCRo0bCXQBu31WwON-29" value="" style="endArrow=classic;html=1;rounded=0;entryX=0.5;entryY=0;entryDx=0;entryDy=0;exitX=0.5;exitY=1;exitDx=0;exitDy=0;" parent="1" source="i2oMCRo0bCXQBu31WwON-5" edge="1">
          <mxGeometry width="50" height="50" relative="1" as="geometry">
            <mxPoint x="260" y="480" as="sourcePoint" />
            <mxPoint x="320" y="600" as="targetPoint" />
          </mxGeometry>
        </mxCell>
        <mxCell id="i2oMCRo0bCXQBu31WwON-30" value="" style="endArrow=classic;html=1;rounded=0;entryX=0.5;entryY=0;entryDx=0;entryDy=0;exitX=0.5;exitY=1;exitDx=0;exitDy=0;" parent="1" source="i2oMCRo0bCXQBu31WwON-4" edge="1">
          <mxGeometry width="50" height="50" relative="1" as="geometry">
            <mxPoint x="260" y="480" as="sourcePoint" />
            <mxPoint x="320" y="600" as="targetPoint" />
          </mxGeometry>
        </mxCell>
        <mxCell id="i2oMCRo0bCXQBu31WwON-31" value="" style="endArrow=classic;html=1;rounded=0;exitX=0.5;exitY=1;exitDx=0;exitDy=0;entryX=0.5;entryY=0;entryDx=0;entryDy=0;" parent="1" source="i2oMCRo0bCXQBu31WwON-4" edge="1">
          <mxGeometry width="50" height="50" relative="1" as="geometry">
            <mxPoint x="160" y="490" as="sourcePoint" />
            <mxPoint x="160" y="600" as="targetPoint" />
          </mxGeometry>
        </mxCell>
        <mxCell id="i2oMCRo0bCXQBu31WwON-32" value="" style="endArrow=classic;html=1;rounded=0;entryX=0.5;entryY=0;entryDx=0;entryDy=0;exitX=0.5;exitY=1;exitDx=0;exitDy=0;" parent="1" source="i2oMCRo0bCXQBu31WwON-1" target="i2oMCRo0bCXQBu31WwON-2" edge="1">
          <mxGeometry width="50" height="50" relative="1" as="geometry">
            <mxPoint x="370" y="400" as="sourcePoint" />
            <mxPoint x="420" y="350" as="targetPoint" />
          </mxGeometry>
        </mxCell>
        <mxCell id="i2oMCRo0bCXQBu31WwON-33" value="" style="endArrow=classic;html=1;rounded=0;entryX=0.5;entryY=0;entryDx=0;entryDy=0;exitX=0.5;exitY=1;exitDx=0;exitDy=0;" parent="1" source="i2oMCRo0bCXQBu31WwON-1" target="i2oMCRo0bCXQBu31WwON-3" edge="1">
          <mxGeometry width="50" height="50" relative="1" as="geometry">
            <mxPoint x="370" y="400" as="sourcePoint" />
            <mxPoint x="420" y="350" as="targetPoint" />
          </mxGeometry>
        </mxCell>
        <mxCell id="i2oMCRo0bCXQBu31WwON-34" value="" style="endArrow=classic;html=1;rounded=0;entryX=0.5;entryY=0;entryDx=0;entryDy=0;exitX=0.5;exitY=1;exitDx=0;exitDy=0;" parent="1" source="i2oMCRo0bCXQBu31WwON-2" target="i2oMCRo0bCXQBu31WwON-4" edge="1">
          <mxGeometry width="50" height="50" relative="1" as="geometry">
            <mxPoint x="370" y="400" as="sourcePoint" />
            <mxPoint x="420" y="350" as="targetPoint" />
          </mxGeometry>
        </mxCell>
        <mxCell id="i2oMCRo0bCXQBu31WwON-35" value="" style="endArrow=classic;html=1;rounded=0;entryX=0.5;entryY=0;entryDx=0;entryDy=0;exitX=0.5;exitY=1;exitDx=0;exitDy=0;" parent="1" source="i2oMCRo0bCXQBu31WwON-2" target="i2oMCRo0bCXQBu31WwON-5" edge="1">
          <mxGeometry width="50" height="50" relative="1" as="geometry">
            <mxPoint x="370" y="400" as="sourcePoint" />
            <mxPoint x="420" y="350" as="targetPoint" />
          </mxGeometry>
        </mxCell>
        <mxCell id="i2oMCRo0bCXQBu31WwON-36" value="" style="endArrow=classic;html=1;rounded=0;entryX=0.5;entryY=0;entryDx=0;entryDy=0;exitX=0.5;exitY=1;exitDx=0;exitDy=0;" parent="1" source="i2oMCRo0bCXQBu31WwON-3" target="i2oMCRo0bCXQBu31WwON-7" edge="1">
          <mxGeometry width="50" height="50" relative="1" as="geometry">
            <mxPoint x="370" y="400" as="sourcePoint" />
            <mxPoint x="420" y="350" as="targetPoint" />
          </mxGeometry>
        </mxCell>
        <mxCell id="i2oMCRo0bCXQBu31WwON-37" value="" style="endArrow=classic;html=1;rounded=0;entryX=0.5;entryY=0;entryDx=0;entryDy=0;exitX=0.5;exitY=1;exitDx=0;exitDy=0;" parent="1" source="i2oMCRo0bCXQBu31WwON-3" target="i2oMCRo0bCXQBu31WwON-6" edge="1">
          <mxGeometry width="50" height="50" relative="1" as="geometry">
            <mxPoint x="370" y="400" as="sourcePoint" />
            <mxPoint x="420" y="350" as="targetPoint" />
          </mxGeometry>
        </mxCell>
        <mxCell id="i2oMCRo0bCXQBu31WwON-38" value="1" style="text;html=1;align=center;verticalAlign=middle;resizable=0;points=[];autosize=1;strokeColor=none;fillColor=none;fontColor=#FF0000;" parent="1" vertex="1">
          <mxGeometry x="370" y="150" width="30" height="30" as="geometry" />
        </mxCell>
        <mxCell id="i2oMCRo0bCXQBu31WwON-39" value="1" style="text;html=1;align=center;verticalAlign=middle;resizable=0;points=[];autosize=1;strokeColor=none;fillColor=none;" parent="1" vertex="1">
          <mxGeometry x="440" y="150" width="30" height="30" as="geometry" />
        </mxCell>
        <mxCell id="i2oMCRo0bCXQBu31WwON-40" value="0.8" style="text;html=1;align=center;verticalAlign=middle;resizable=0;points=[];autosize=1;strokeColor=none;fillColor=none;fontColor=#FF0000;" parent="1" vertex="1">
          <mxGeometry x="160" y="250" width="40" height="30" as="geometry" />
        </mxCell>
        <mxCell id="i2oMCRo0bCXQBu31WwON-41" value="0.8" style="text;html=1;align=center;verticalAlign=middle;resizable=0;points=[];autosize=1;strokeColor=none;fillColor=none;" parent="1" vertex="1">
          <mxGeometry x="200" y="250" width="40" height="30" as="geometry" />
        </mxCell>
        <mxCell id="i2oMCRo0bCXQBu31WwON-42" value="&lt;font color=&quot;#ff0000&quot;&gt;0.2&lt;/font&gt;" style="text;html=1;align=center;verticalAlign=middle;resizable=0;points=[];autosize=1;strokeColor=none;fillColor=none;" parent="1" vertex="1">
          <mxGeometry x="640" y="250" width="40" height="30" as="geometry" />
        </mxCell>
        <mxCell id="i2oMCRo0bCXQBu31WwON-43" value="0.2" style="text;html=1;align=center;verticalAlign=middle;resizable=0;points=[];autosize=1;strokeColor=none;fillColor=none;" parent="1" vertex="1">
          <mxGeometry x="600" y="250" width="40" height="30" as="geometry" />
        </mxCell>
        <mxCell id="i2oMCRo0bCXQBu31WwON-44" value="0.6" style="text;html=1;align=center;verticalAlign=middle;resizable=0;points=[];autosize=1;strokeColor=none;fillColor=none;" parent="1" vertex="1">
          <mxGeometry x="120" y="390" width="40" height="30" as="geometry" />
        </mxCell>
        <mxCell id="i2oMCRo0bCXQBu31WwON-45" value="0.2" style="text;html=1;align=center;verticalAlign=middle;resizable=0;points=[];autosize=1;strokeColor=none;fillColor=none;" parent="1" vertex="1">
          <mxGeometry x="320" y="390" width="40" height="30" as="geometry" />
        </mxCell>
        <mxCell id="i2oMCRo0bCXQBu31WwON-46" value="0.167" style="text;html=1;align=center;verticalAlign=middle;resizable=0;points=[];autosize=1;strokeColor=none;fillColor=none;" parent="1" vertex="1">
          <mxGeometry x="470" y="390" width="50" height="30" as="geometry" />
        </mxCell>
        <mxCell id="i2oMCRo0bCXQBu31WwON-47" value="0.033" style="text;html=1;align=center;verticalAlign=middle;resizable=0;points=[];autosize=1;strokeColor=none;fillColor=none;" parent="1" vertex="1">
          <mxGeometry x="680" y="390" width="50" height="30" as="geometry" />
        </mxCell>
        <mxCell id="2hRgRXSbO26JLIKiZqb8-1" value="0.142" style="text;html=1;align=center;verticalAlign=middle;resizable=0;points=[];autosize=1;strokeColor=none;fillColor=none;" parent="1" vertex="1">
          <mxGeometry x="90" y="670" width="50" height="30" as="geometry" />
        </mxCell>
        <mxCell id="2hRgRXSbO26JLIKiZqb8-2" value="0.793" style="text;html=1;align=center;verticalAlign=middle;resizable=0;points=[];autosize=1;strokeColor=none;fillColor=none;" parent="1" vertex="1">
          <mxGeometry x="340" y="670" width="50" height="30" as="geometry" />
        </mxCell>
        <mxCell id="2hRgRXSbO26JLIKiZqb8-3" value="0.027" style="text;html=1;align=center;verticalAlign=middle;resizable=0;points=[];autosize=1;strokeColor=none;fillColor=none;" parent="1" vertex="1">
          <mxGeometry x="450" y="670" width="50" height="30" as="geometry" />
        </mxCell>
        <mxCell id="2hRgRXSbO26JLIKiZqb8-4" value="0.038" style="text;html=1;align=center;verticalAlign=middle;resizable=0;points=[];autosize=1;strokeColor=none;fillColor=none;" parent="1" vertex="1">
          <mxGeometry x="700" y="670" width="50" height="30" as="geometry" />
        </mxCell>
        <mxCell id="2hRgRXSbO26JLIKiZqb8-5" value="0.75" style="text;html=1;align=center;verticalAlign=middle;resizable=0;points=[];autosize=1;strokeColor=none;fillColor=none;fontColor=#FA0000;" parent="1" vertex="1">
          <mxGeometry x="180" y="390" width="50" height="30" as="geometry" />
        </mxCell>
        <mxCell id="2hRgRXSbO26JLIKiZqb8-6" value="0.25" style="text;html=1;align=center;verticalAlign=middle;resizable=0;points=[];autosize=1;strokeColor=none;fillColor=none;fontColor=#FA0000;" parent="1" vertex="1">
          <mxGeometry x="250" y="390" width="50" height="30" as="geometry" />
        </mxCell>
        <mxCell id="2hRgRXSbO26JLIKiZqb8-8" value="0.833" style="text;html=1;align=center;verticalAlign=middle;resizable=0;points=[];autosize=1;strokeColor=none;fillColor=none;fontColor=#FA0000;" parent="1" vertex="1">
          <mxGeometry x="545" y="388" width="50" height="30" as="geometry" />
        </mxCell>
        <mxCell id="2hRgRXSbO26JLIKiZqb8-9" value="0.167" style="text;html=1;align=center;verticalAlign=middle;resizable=0;points=[];autosize=1;strokeColor=none;fillColor=none;fontColor=#FA0000;" parent="1" vertex="1">
          <mxGeometry x="600" y="390" width="50" height="30" as="geometry" />
        </mxCell>
        <mxCell id="2hRgRXSbO26JLIKiZqb8-10" value="0.125" style="text;html=1;align=center;verticalAlign=middle;resizable=0;points=[];autosize=1;strokeColor=none;fillColor=none;fontColor=#FA0000;" parent="1" vertex="1">
          <mxGeometry x="110" y="569" width="50" height="30" as="geometry" />
        </mxCell>
        <mxCell id="2hRgRXSbO26JLIKiZqb8-12" value="0.875" style="text;html=1;align=center;verticalAlign=middle;resizable=0;points=[];autosize=1;strokeColor=none;fillColor=none;fontColor=#FA0000;" parent="1" vertex="1">
          <mxGeometry x="190" y="569" width="50" height="30" as="geometry" />
        </mxCell>
        <mxCell id="2hRgRXSbO26JLIKiZqb8-13" value="0.333" style="text;html=1;align=center;verticalAlign=middle;resizable=0;points=[];autosize=1;strokeColor=none;fillColor=none;fontColor=#FA0000;" parent="1" vertex="1">
          <mxGeometry x="245" y="570" width="50" height="30" as="geometry" />
        </mxCell>
        <mxCell id="2hRgRXSbO26JLIKiZqb8-14" value="0.667" style="text;html=1;align=center;verticalAlign=middle;resizable=0;points=[];autosize=1;strokeColor=none;fillColor=none;fontColor=#FA0000;" parent="1" vertex="1">
          <mxGeometry x="325" y="570" width="50" height="30" as="geometry" />
        </mxCell>
        <mxCell id="2hRgRXSbO26JLIKiZqb8-15" value="0.683" style="text;html=1;align=center;verticalAlign=middle;resizable=0;points=[];autosize=1;strokeColor=none;fillColor=none;fontColor=#FA0000;" parent="1" vertex="1">
          <mxGeometry x="375" y="550" width="50" height="30" as="geometry" />
        </mxCell>
        <mxCell id="2hRgRXSbO26JLIKiZqb8-16" value="0.630" style="text;html=1;align=center;verticalAlign=middle;resizable=0;points=[];autosize=1;strokeColor=none;fillColor=none;fontColor=#FA0000;" parent="1" vertex="1">
          <mxGeometry x="389" y="600" width="50" height="30" as="geometry" />
        </mxCell>
        <mxCell id="2hRgRXSbO26JLIKiZqb8-17" value="0.117" style="text;html=1;align=center;verticalAlign=middle;resizable=0;points=[];autosize=1;strokeColor=none;fillColor=none;fontColor=#FA0000;" parent="1" vertex="1">
          <mxGeometry x="470" y="569" width="50" height="30" as="geometry" />
        </mxCell>
        <mxCell id="2hRgRXSbO26JLIKiZqb8-18" value="0.218" style="text;html=1;align=center;verticalAlign=middle;resizable=0;points=[];autosize=1;strokeColor=none;fillColor=none;fontColor=#FA0000;" parent="1" vertex="1">
          <mxGeometry x="550" y="569" width="50" height="30" as="geometry" />
        </mxCell>
        <mxCell id="2hRgRXSbO26JLIKiZqb8-19" value="0.2" style="text;html=1;align=center;verticalAlign=middle;resizable=0;points=[];autosize=1;strokeColor=none;fillColor=none;fontColor=#FA0000;" parent="1" vertex="1">
          <mxGeometry x="610" y="570" width="40" height="30" as="geometry" />
        </mxCell>
        <mxCell id="2hRgRXSbO26JLIKiZqb8-20" value="0.151" style="text;html=1;align=center;verticalAlign=middle;resizable=0;points=[];autosize=1;strokeColor=none;fillColor=none;fontColor=#FA0000;" parent="1" vertex="1">
          <mxGeometry x="680" y="570" width="50" height="30" as="geometry" />
        </mxCell>
        <mxCell id="0tdjNyNtjZIRWeP92NWh-5" value="Создать единый портал подачи заявок на конкурс ППС" style="rounded=0;whiteSpace=wrap;html=1;" parent="1" vertex="1">
          <mxGeometry x="250" y="599" width="140" height="70" as="geometry" />
        </mxCell>
        <mxCell id="0tdjNyNtjZIRWeP92NWh-6" value="Предоставить возможность подачи заявления через заполнение полей на сайте вуза&amp;nbsp;" style="whiteSpace=wrap;html=1;" parent="1" vertex="1">
          <mxGeometry x="450" y="599" width="140" height="70" as="geometry" />
        </mxCell>
        <mxCell id="0tdjNyNtjZIRWeP92NWh-7" value="Внедрить систему проверки сканов документов и заявлений" style="whiteSpace=wrap;html=1;" parent="1" vertex="1">
          <mxGeometry x="610" y="599" width="140" height="70" as="geometry" />
        </mxCell>
        <mxCell id="0tdjNyNtjZIRWeP92NWh-8" value="Добавить на сайте вуза блог о профессиональной жизни вуза с возможностью подписки" style="rounded=0;whiteSpace=wrap;html=1;" parent="1" vertex="1">
          <mxGeometry x="90" y="599" width="140" height="70" as="geometry" />
        </mxCell>
      </root>
    </mxGraphModel>
  </diagram>
  <diagram id="B2ytKCy-zlSfCfE7F4sY" name="Алгоритм программы">
    <mxGraphModel dx="712" dy="940" grid="1" gridSize="10" guides="1" tooltips="1" connect="1" arrows="1" fold="1" page="1" pageScale="1" pageWidth="827" pageHeight="1169" math="0" shadow="0">
      <root>
        <mxCell id="0" />
        <mxCell id="1" parent="0" />
        <mxCell id="HU7GrpztJaQ2imIAOUX5-17" style="edgeStyle=orthogonalEdgeStyle;rounded=0;orthogonalLoop=1;jettySize=auto;html=1;entryX=0.5;entryY=0;entryDx=0;entryDy=0;" parent="1" source="HU7GrpztJaQ2imIAOUX5-1" target="HU7GrpztJaQ2imIAOUX5-2" edge="1">
          <mxGeometry relative="1" as="geometry" />
        </mxCell>
        <mxCell id="HU7GrpztJaQ2imIAOUX5-1" value="Выбор варианта управления&lt;br&gt;по критерию Максимакса&lt;br&gt;(Групповое оценивание)" style="ellipse;whiteSpace=wrap;html=1;" parent="1" vertex="1">
          <mxGeometry x="240" y="40" width="240" height="80" as="geometry" />
        </mxCell>
        <mxCell id="9U_vh6xzLa1ZuSGHEiVj-3" style="edgeStyle=orthogonalEdgeStyle;rounded=0;orthogonalLoop=1;jettySize=auto;html=1;entryX=0.5;entryY=0;entryDx=0;entryDy=0;" edge="1" parent="1" source="HU7GrpztJaQ2imIAOUX5-2" target="9U_vh6xzLa1ZuSGHEiVj-2">
          <mxGeometry relative="1" as="geometry" />
        </mxCell>
        <mxCell id="HU7GrpztJaQ2imIAOUX5-2" value="Определение начальных значений:&lt;br&gt;количетсво альтернатив,&lt;br&gt;количество состояний, количество экспертов" style="rounded=0;whiteSpace=wrap;html=1;" parent="1" vertex="1">
          <mxGeometry x="280" y="160" width="160" height="80" as="geometry" />
        </mxCell>
        <mxCell id="9U_vh6xzLa1ZuSGHEiVj-5" style="edgeStyle=orthogonalEdgeStyle;rounded=0;orthogonalLoop=1;jettySize=auto;html=1;" edge="1" parent="1" source="HU7GrpztJaQ2imIAOUX5-3" target="HU7GrpztJaQ2imIAOUX5-9">
          <mxGeometry relative="1" as="geometry" />
        </mxCell>
        <mxCell id="HU7GrpztJaQ2imIAOUX5-3" value="Определение имен альтернатив" style="rounded=0;whiteSpace=wrap;html=1;" parent="1" vertex="1">
          <mxGeometry x="280" y="400" width="160" height="80" as="geometry" />
        </mxCell>
        <mxCell id="HU7GrpztJaQ2imIAOUX5-19" style="edgeStyle=orthogonalEdgeStyle;rounded=0;orthogonalLoop=1;jettySize=auto;html=1;entryX=0.5;entryY=0;entryDx=0;entryDy=0;" parent="1" source="HU7GrpztJaQ2imIAOUX5-9" target="HU7GrpztJaQ2imIAOUX5-11" edge="1">
          <mxGeometry relative="1" as="geometry" />
        </mxCell>
        <mxCell id="HU7GrpztJaQ2imIAOUX5-9" value="Определение имен состояний" style="rounded=0;whiteSpace=wrap;html=1;" parent="1" vertex="1">
          <mxGeometry x="280" y="520" width="160" height="80" as="geometry" />
        </mxCell>
        <mxCell id="HU7GrpztJaQ2imIAOUX5-20" style="edgeStyle=orthogonalEdgeStyle;rounded=0;orthogonalLoop=1;jettySize=auto;html=1;" parent="1" source="HU7GrpztJaQ2imIAOUX5-11" target="HU7GrpztJaQ2imIAOUX5-12" edge="1">
          <mxGeometry relative="1" as="geometry">
            <Array as="points">
              <mxPoint x="490" y="680" />
              <mxPoint x="490" y="200" />
            </Array>
          </mxGeometry>
        </mxCell>
        <mxCell id="HU7GrpztJaQ2imIAOUX5-11" value="Определение значений распределения навыков между кандидатами" style="rounded=0;whiteSpace=wrap;html=1;" parent="1" vertex="1">
          <mxGeometry x="280" y="640" width="160" height="80" as="geometry" />
        </mxCell>
        <mxCell id="HU7GrpztJaQ2imIAOUX5-21" style="edgeStyle=orthogonalEdgeStyle;rounded=0;orthogonalLoop=1;jettySize=auto;html=1;entryX=0.5;entryY=0;entryDx=0;entryDy=0;" parent="1" source="HU7GrpztJaQ2imIAOUX5-12" target="HU7GrpztJaQ2imIAOUX5-13" edge="1">
          <mxGeometry relative="1" as="geometry" />
        </mxCell>
        <mxCell id="HU7GrpztJaQ2imIAOUX5-12" value="Определение значений вероятностей кандидату с каким либо навыком получить информацию о конкурсе" style="rounded=0;whiteSpace=wrap;html=1;" parent="1" vertex="1">
          <mxGeometry x="560" y="160" width="160" height="80" as="geometry" />
        </mxCell>
        <mxCell id="HU7GrpztJaQ2imIAOUX5-22" style="edgeStyle=orthogonalEdgeStyle;rounded=0;orthogonalLoop=1;jettySize=auto;html=1;" parent="1" source="HU7GrpztJaQ2imIAOUX5-13" target="HU7GrpztJaQ2imIAOUX5-14" edge="1">
          <mxGeometry relative="1" as="geometry" />
        </mxCell>
        <mxCell id="HU7GrpztJaQ2imIAOUX5-13" value="Нахождение матрицы эффективности и выделение критерия Максимакса, а также лучшей альтернативы" style="rounded=0;whiteSpace=wrap;html=1;" parent="1" vertex="1">
          <mxGeometry x="560" y="280" width="160" height="80" as="geometry" />
        </mxCell>
        <mxCell id="HU7GrpztJaQ2imIAOUX5-23" style="edgeStyle=orthogonalEdgeStyle;rounded=0;orthogonalLoop=1;jettySize=auto;html=1;entryX=0.5;entryY=0;entryDx=0;entryDy=0;" parent="1" source="HU7GrpztJaQ2imIAOUX5-14" target="HU7GrpztJaQ2imIAOUX5-16" edge="1">
          <mxGeometry relative="1" as="geometry" />
        </mxCell>
        <mxCell id="HU7GrpztJaQ2imIAOUX5-14" value="Вывод полученной матрицы и лучшей альтернативы" style="rounded=0;whiteSpace=wrap;html=1;" parent="1" vertex="1">
          <mxGeometry x="560" y="400" width="160" height="80" as="geometry" />
        </mxCell>
        <mxCell id="HU7GrpztJaQ2imIAOUX5-16" value="Завершение работы программы" style="ellipse;whiteSpace=wrap;html=1;" parent="1" vertex="1">
          <mxGeometry x="555" y="520" width="170" height="80" as="geometry" />
        </mxCell>
        <mxCell id="9U_vh6xzLa1ZuSGHEiVj-4" style="edgeStyle=orthogonalEdgeStyle;rounded=0;orthogonalLoop=1;jettySize=auto;html=1;" edge="1" parent="1" source="9U_vh6xzLa1ZuSGHEiVj-2" target="HU7GrpztJaQ2imIAOUX5-3">
          <mxGeometry relative="1" as="geometry" />
        </mxCell>
        <mxCell id="9U_vh6xzLa1ZuSGHEiVj-2" value="Определение компетенстности экспертов" style="rounded=0;whiteSpace=wrap;html=1;" vertex="1" parent="1">
          <mxGeometry x="280" y="280" width="160" height="80" as="geometry" />
        </mxCell>
      </root>
    </mxGraphModel>
  </diagram>
</mxfile>
